<?xml version="1.0" encoding="UTF-8" standalone="no"?>
<!-- Created with Inkscape (http://www.inkscape.org/) -->

<svg
   xmlns:dc="http://purl.org/dc/elements/1.1/"
   xmlns:cc="http://creativecommons.org/ns#"
   xmlns:rdf="http://www.w3.org/1999/02/22-rdf-syntax-ns#"
   xmlns:svg="http://www.w3.org/2000/svg"
   xmlns="http://www.w3.org/2000/svg"
   xmlns:sodipodi="http://sodipodi.sourceforge.net/DTD/sodipodi-0.dtd"
   xmlns:inkscape="http://www.inkscape.org/namespaces/inkscape"
   version="1.1"
   width="401.875"
   height="401.875"
   viewBox="0 0 401.875 401.875"
   id="Layer_1"
   xml:space="preserve"
   style="overflow:visible"
   inkscape:version="0.91 r13725"
   sodipodi:docname="OrigamiCrane.svg"><sodipodi:namedview
     pagecolor="#ffffff"
     bordercolor="#666666"
     borderopacity="1"
     objecttolerance="10"
     gridtolerance="10"
     guidetolerance="10"
     inkscape:pageopacity="0"
     inkscape:pageshadow="2"
     inkscape:window-width="1280"
     inkscape:window-height="703"
     id="namedview8"
     showgrid="false"
     inkscape:zoom="0.45254834"
     inkscape:cx="353.73304"
     inkscape:cy="-45.266447"
     inkscape:window-x="0"
     inkscape:window-y="0"
     inkscape:window-maximized="1"
     inkscape:current-layer="Layer_1" /><metadata
     id="metadata11"><rdf:RDF><cc:Work
         rdf:about=""><dc:format>image/svg+xml</dc:format><dc:type
           rdf:resource="http://purl.org/dc/dcmitype/StillImage" /><dc:title></dc:title></cc:Work></rdf:RDF></metadata><defs
     id="defs9" /><rect
     y="-71.002663"
     x="-50.823299"
     height="1080"
     width="2160"
     id="rect4170"
     style="opacity:1;fill:none;fill-opacity:1;stroke:#ff00ff;stroke-width:2;stroke-miterlimit:4;stroke-dasharray:none;stroke-dashoffset:0;stroke-opacity:1" /><g
     id="g5421"
     transform="matrix(1.6653633,0,0,1.6653633,-30.944985,-55.25178)"><path
       d="m 0.9375,0.9375 400,0 0,400 -400,0 0,-400 z"
       id="path5"
       style="fill:none;stroke:#ff00ff;stroke-linejoin:round"
       inkscape:connector-curvature="0" /><path
       d="m 0.9375,0.9375 400,400 m -258.578,-258.578 58.578,-58.579 m 0,0 0,-82.843 m 58.578,258.578 58.579,-58.578 m 0,0 82.843,0 m -400,0 82.843,0 m 0,0 117.157,117.157 m 58.578,-175.735 -58.578,58.578 m 0,117.157 0,82.843 m -200,0 141.422,-141.422"
       id="path7"
       style="fill:none;stroke:#0000ff;stroke-width:2;stroke-miterlimit:4;stroke-dasharray:none"
       inkscape:connector-curvature="0" /><path
       d="m 400.9375,0.9375 -82.843,200 m 0,0 82.843,200 m 0,0 -200,-82.843 m 0,0 -200,82.843 m 0,0 82.843,-200 m 0,0 -82.843,-200 m 0,0 200,82.843 m 0,0 200,-82.843 m 0,0 -141.422,141.422 m -58.578,58.578 -58.578,58.578 m 117.156,0 -58.578,58.579 m 0,0 0,-234.314 m 0,0 117.157,117.157 m 0,0 -234.314,0 m 0,0 58.579,-58.578"
       id="path9"
       style="fill:none;stroke:#ff0000;stroke-width:2;stroke-miterlimit:4;stroke-dasharray:none"
       inkscape:connector-curvature="0" /><g
       inkscape:label="Hershey Text"
       transform="matrix(0.19021534,0,0,0.19021534,205.36708,6.3916359)"
       id="g4189"><path
         inkscape:connector-curvature="0"
         d="m 6,-2 -2,-2 -2,-1 -3,0 -2,1 -2,2 -1,3 0,2 1,3 2,2 2,1 3,0 2,-1 2,-2"
         style="fill:none;stroke:#000000"
         transform="translate(9,0)"
         id="path4191" /><path
         inkscape:connector-curvature="0"
         d="m -1,-5 -2,1 -2,2 -1,3 0,2 1,3 2,2 2,1 L 2,9 4,8 6,6 7,3 7,1 6,-2 4,-4 2,-5 -1,-5"
         style="fill:none;stroke:#000000"
         transform="translate(27,0)"
         id="path4193" /><path
         inkscape:connector-curvature="0"
         d="m -11,-5 0,14 m 0,-10 3,-3 2,-1 3,0 2,1 1,3 0,10 m 0,-10 3,-3 2,-1 3,0 2,1 1,3 0,10"
         style="fill:none;stroke:#000000"
         transform="translate(52,0)"
         id="path4195" /><path
         inkscape:connector-curvature="0"
         d="m -11,-5 0,14 m 0,-10 3,-3 2,-1 3,0 2,1 1,3 0,10 m 0,-10 3,-3 2,-1 3,0 2,1 1,3 0,10"
         style="fill:none;stroke:#000000"
         transform="translate(82,0)"
         id="path4197" /><path
         inkscape:connector-curvature="0"
         d="m -1,-5 -2,1 -2,2 -1,3 0,2 1,3 2,2 2,1 L 2,9 4,8 6,6 7,3 7,1 6,-2 4,-4 2,-5 -1,-5"
         style="fill:none;stroke:#000000"
         transform="translate(106,0)"
         id="path4199" /><path
         inkscape:connector-curvature="0"
         d="m -5,-5 0,14 m 0,-10 3,-3 2,-1 3,0 2,1 1,3 0,10"
         style="fill:none;stroke:#000000"
         transform="translate(125,0)"
         id="path4201" /><path
         inkscape:connector-curvature="0"
         d="m 6,-2 -1,-2 -3,-1 -3,0 -3,1 -1,2 1,2 2,1 L 3,2 5,3 6,5 6,6 5,8 2,9 -1,9 -4,8 -5,6"
         style="fill:none;stroke:#000000"
         transform="translate(143,0)"
         id="path4203" /><path
         inkscape:connector-curvature="0"
         d="M 0,4 -1,5 0,6 1,5 0,4"
         style="fill:none;stroke:#000000"
         transform="translate(156,0)"
         id="path4205" /><path
         inkscape:connector-curvature="0"
         d="M -8,-5 -4,9 M 0,-5 -4,9 M 0,-5 4,9 M 8,-5 4,9"
         style="fill:none;stroke:#000000"
         transform="translate(171,0)"
         id="path4207" /><path
         inkscape:connector-curvature="0"
         d="m -1,-12 1,1 1,-1 -1,-1 -1,1 m 1,7 0,14"
         style="fill:none;stroke:#000000"
         transform="translate(186,0)"
         id="path4209" /><path
         inkscape:connector-curvature="0"
         d="M -5,-12 -5,9 M 5,-5 -5,5 m 4,-4 7,8"
         style="fill:none;stroke:#000000"
         transform="translate(199,0)"
         id="path4211" /><path
         inkscape:connector-curvature="0"
         d="m -1,-12 1,1 1,-1 -1,-1 -1,1 m 1,7 0,14"
         style="fill:none;stroke:#000000"
         transform="translate(211,0)"
         id="path4213" /><path
         inkscape:connector-curvature="0"
         d="m -11,-5 0,14 m 0,-10 3,-3 2,-1 3,0 2,1 1,3 0,10 m 0,-10 3,-3 2,-1 3,0 2,1 1,3 0,10"
         style="fill:none;stroke:#000000"
         transform="translate(230,0)"
         id="path4215" /><path
         inkscape:connector-curvature="0"
         d="M -6,1 6,1 6,-1 5,-3 4,-4 2,-5 l -3,0 -2,1 -2,2 -1,3 0,2 1,3 2,2 2,1 3,0 2,-1 2,-2"
         style="fill:none;stroke:#000000"
         transform="translate(254,0)"
         id="path4217" /><path
         inkscape:connector-curvature="0"
         d="M 6,-12 6,9 M 6,-2 4,-4 2,-5 l -3,0 -2,1 -2,2 -1,3 0,2 1,3 2,2 2,1 3,0 2,-1 2,-2"
         style="fill:none;stroke:#000000"
         transform="translate(272,0)"
         id="path4219" /><path
         inkscape:connector-curvature="0"
         d="m -1,-12 1,1 1,-1 -1,-1 -1,1 m 1,7 0,14"
         style="fill:none;stroke:#000000"
         transform="translate(286,0)"
         id="path4221" /><path
         inkscape:connector-curvature="0"
         d="M 6,-5 6,9 M 6,-2 4,-4 2,-5 l -3,0 -2,1 -2,2 -1,3 0,2 1,3 2,2 2,1 3,0 2,-1 2,-2"
         style="fill:none;stroke:#000000"
         transform="translate(299,0)"
         id="path4223" /><path
         inkscape:connector-curvature="0"
         d="M 0,4 -1,5 0,6 1,5 0,4"
         style="fill:none;stroke:#000000"
         transform="translate(313,0)"
         id="path4225" /><path
         inkscape:connector-curvature="0"
         d="m -1,-5 -2,1 -2,2 -1,3 0,2 1,3 2,2 2,1 L 2,9 4,8 6,6 7,3 7,1 6,-2 4,-4 2,-5 -1,-5"
         style="fill:none;stroke:#000000"
         transform="translate(326,0)"
         id="path4227" /><path
         inkscape:connector-curvature="0"
         d="m -3,-5 0,14 m 0,-8 1,-3 2,-2 2,-1 3,0"
         style="fill:none;stroke:#000000"
         transform="translate(343,0)"
         id="path4229" /><path
         inkscape:connector-curvature="0"
         d="m 6,-5 0,16 -1,3 -1,1 -2,1 -3,0 -2,-1 M 6,-2 4,-4 2,-5 l -3,0 -2,1 -2,2 -1,3 0,2 1,3 2,2 2,1 3,0 2,-1 2,-2"
         style="fill:none;stroke:#000000"
         transform="translate(358,0)"
         id="path4231" /><path
         inkscape:connector-curvature="0"
         d="M 9,-16 -9,16"
         style="fill:none;stroke:#000000"
         transform="translate(379,0)"
         id="path4233" /><path
         inkscape:connector-curvature="0"
         d="M -8,-5 -4,9 M 0,-5 -4,9 M 0,-5 4,9 M 8,-5 4,9"
         style="fill:none;stroke:#000000"
         transform="translate(401,0)"
         id="path4235" /><path
         inkscape:connector-curvature="0"
         d="m -1,-12 1,1 1,-1 -1,-1 -1,1 m 1,7 0,14"
         style="fill:none;stroke:#000000"
         transform="translate(416,0)"
         id="path4237" /><path
         inkscape:connector-curvature="0"
         d="M -5,-12 -5,9 M 5,-5 -5,5 m 4,-4 7,8"
         style="fill:none;stroke:#000000"
         transform="translate(429,0)"
         id="path4239" /><path
         inkscape:connector-curvature="0"
         d="m -1,-12 1,1 1,-1 -1,-1 -1,1 m 1,7 0,14"
         style="fill:none;stroke:#000000"
         transform="translate(441,0)"
         id="path4241" /><path
         inkscape:connector-curvature="0"
         d="M 9,-16 -9,16"
         style="fill:none;stroke:#000000"
         transform="translate(456,0)"
         id="path4243" /><path
         inkscape:connector-curvature="0"
         d="m -6,-12 0,21 m 0,-21 13,0 m -13,10 8,0"
         style="fill:none;stroke:#000000"
         transform="translate(477,0)"
         id="path4245" /><path
         inkscape:connector-curvature="0"
         d="m -1,-12 1,1 1,-1 -1,-1 -1,1 m 1,7 0,14"
         style="fill:none;stroke:#000000"
         transform="translate(489,0)"
         id="path4247" /><path
         inkscape:connector-curvature="0"
         d="M 0,-12 0,9"
         style="fill:none;stroke:#000000"
         transform="translate(497,0)"
         id="path4249" /><path
         inkscape:connector-curvature="0"
         d="M -6,1 6,1 6,-1 5,-3 4,-4 2,-5 l -3,0 -2,1 -2,2 -1,3 0,2 1,3 2,2 2,1 3,0 2,-1 2,-2"
         style="fill:none;stroke:#000000"
         transform="translate(510,0)"
         id="path4251" /><path
         inkscape:connector-curvature="0"
         d="m 0,-3 -1,1 1,1 1,-1 -1,-1 M 0,4 -1,5 0,6 1,5 0,4"
         style="fill:none;stroke:#000000"
         transform="translate(523,0)"
         id="path4253" /><path
         inkscape:connector-curvature="0"
         d="M -8,-12 -8,9 M -8,-12 0,9 M 8,-12 0,9 M 8,-12 8,9"
         style="fill:none;stroke:#000000"
         transform="translate(539,0)"
         id="path4255" /><path
         inkscape:connector-curvature="0"
         d="M 6,-5 6,9 M 6,-2 4,-4 2,-5 l -3,0 -2,1 -2,2 -1,3 0,2 1,3 2,2 2,1 3,0 2,-1 2,-2"
         style="fill:none;stroke:#000000"
         transform="translate(560,0)"
         id="path4257" /><path
         inkscape:connector-curvature="0"
         d="M -6,1 6,1 6,-1 5,-3 4,-4 2,-5 l -3,0 -2,1 -2,2 -1,3 0,2 1,3 2,2 2,1 3,0 2,-1 2,-2"
         style="fill:none;stroke:#000000"
         transform="translate(579,0)"
         id="path4259" /><path
         inkscape:connector-curvature="0"
         d="M -5,-12 -5,9 M 5,-5 -5,5 m 4,-4 7,8"
         style="fill:none;stroke:#000000"
         transform="translate(597,0)"
         id="path4261" /><path
         inkscape:connector-curvature="0"
         d="M 6,-5 6,9 M 6,-2 4,-4 2,-5 l -3,0 -2,1 -2,2 -1,3 0,2 1,3 2,2 2,1 3,0 2,-1 2,-2"
         style="fill:none;stroke:#000000"
         transform="translate(614,0)"
         id="path4263" /><path
         inkscape:connector-curvature="0"
         d="M -8,-5 -4,9 M 0,-5 -4,9 M 0,-5 4,9 M 8,-5 4,9"
         style="fill:none;stroke:#000000"
         transform="translate(635,0)"
         id="path4265" /><path
         inkscape:connector-curvature="0"
         d="M 6,-5 6,9 M 6,-2 4,-4 2,-5 l -3,0 -2,1 -2,2 -1,3 0,2 1,3 2,2 2,1 3,0 2,-1 2,-2"
         style="fill:none;stroke:#000000"
         transform="translate(655,0)"
         id="path4267" /><path
         inkscape:connector-curvature="0"
         d="m 6,-2 -1,-2 -3,-1 -3,0 -3,1 -1,2 1,2 2,1 L 3,2 5,3 6,5 6,6 5,8 2,9 -1,9 -4,8 -5,6"
         style="fill:none;stroke:#000000"
         transform="translate(673,0)"
         id="path4269" /><path
         inkscape:connector-curvature="0"
         d="M -9,16 9,16"
         style="fill:none;stroke:#000000"
         transform="translate(691,0)"
         id="path4271" /><path
         inkscape:connector-curvature="0"
         d="M 0,-12 0,9 m -7,-21 14,0"
         style="fill:none;stroke:#000000"
         transform="translate(708,0)"
         id="path4273" /><path
         inkscape:connector-curvature="0"
         d="m -5,-12 0,21 m 0,-10 3,-3 2,-1 3,0 2,1 1,3 0,10"
         style="fill:none;stroke:#000000"
         transform="translate(725,0)"
         id="path4275" /><path
         inkscape:connector-curvature="0"
         d="M -6,1 6,1 6,-1 5,-3 4,-4 2,-5 l -3,0 -2,1 -2,2 -1,3 0,2 1,3 2,2 2,1 3,0 2,-1 2,-2"
         style="fill:none;stroke:#000000"
         transform="translate(744,0)"
         id="path4277" /><path
         inkscape:connector-curvature="0"
         d="m -1,-5 -2,1 -2,2 -1,3 0,2 1,3 2,2 2,1 L 2,9 4,8 6,6 7,3 7,1 6,-2 4,-4 2,-5 -1,-5"
         style="fill:none;stroke:#000000"
         transform="translate(762,0)"
         id="path4279" /><path
         inkscape:connector-curvature="0"
         d="m -3,-5 0,14 m 0,-8 1,-3 2,-2 2,-1 3,0"
         style="fill:none;stroke:#000000"
         transform="translate(779,0)"
         id="path4281" /><path
         inkscape:connector-curvature="0"
         d="M -6,1 6,1 6,-1 5,-3 4,-4 2,-5 l -3,0 -2,1 -2,2 -1,3 0,2 1,3 2,2 2,1 3,0 2,-1 2,-2"
         style="fill:none;stroke:#000000"
         transform="translate(794,0)"
         id="path4283" /><path
         inkscape:connector-curvature="0"
         d="m -11,-5 0,14 m 0,-10 3,-3 2,-1 3,0 2,1 1,3 0,10 m 0,-10 3,-3 2,-1 3,0 2,1 1,3 0,10"
         style="fill:none;stroke:#000000"
         transform="translate(818,0)"
         id="path4285" /><path
         inkscape:connector-curvature="0"
         d="M 0,4 -1,5 0,6 1,5 0,4"
         style="fill:none;stroke:#000000"
         transform="translate(837,0)"
         id="path4287" /><path
         inkscape:connector-curvature="0"
         d="m 6,-2 -1,-2 -3,-1 -3,0 -3,1 -1,2 1,2 2,1 L 3,2 5,3 6,5 6,6 5,8 2,9 -1,9 -4,8 -5,6"
         style="fill:none;stroke:#000000"
         transform="translate(849,0)"
         id="path4289" /><path
         inkscape:connector-curvature="0"
         d="M -6,-5 0,9 M 6,-5 0,9"
         style="fill:none;stroke:#000000"
         transform="translate(866,0)"
         id="path4291" /><path
         inkscape:connector-curvature="0"
         d="m 6,-5 0,16 -1,3 -1,1 -2,1 -3,0 -2,-1 M 6,-2 4,-4 2,-5 l -3,0 -2,1 -2,2 -1,3 0,2 1,3 2,2 2,1 3,0 2,-1 2,-2"
         style="fill:none;stroke:#000000"
         transform="translate(883,0)"
         id="path4293" /></g></g><rect
     style="opacity:1;fill:none;fill-opacity:1;stroke:#aa8800;stroke-width:2;stroke-miterlimit:4;stroke-dasharray:none;stroke-dashoffset:0;stroke-opacity:1"
     id="rect4357"
     width="765"
     height="1035"
     x="-41.226212"
     y="-63.972088" /><g
     transform="matrix(0.81303841,0,0,0.81303841,-28.723714,623.14041)"
     id="g5479"><path
       inkscape:connector-curvature="0"
       style="fill:none;stroke:#ff00ff;stroke-linejoin:round"
       id="path5481"
       d="m 0.9375,0.9375 400,0 0,400 -400,0 0,-400 z" /><path
       inkscape:connector-curvature="0"
       style="fill:none;stroke:#0000ff;stroke-width:2;stroke-miterlimit:4;stroke-dasharray:none"
       id="path5483"
       d="m 0.9375,0.9375 400,400 m -258.578,-258.578 58.578,-58.579 m 0,0 0,-82.843 m 58.578,258.578 58.579,-58.578 m 0,0 82.843,0 m -400,0 82.843,0 m 0,0 117.157,117.157 m 58.578,-175.735 -58.578,58.578 m 0,117.157 0,82.843 m -200,0 141.422,-141.422" /><path
       inkscape:connector-curvature="0"
       style="fill:none;stroke:#ff0000;stroke-width:2;stroke-miterlimit:4;stroke-dasharray:none"
       id="path5485"
       d="m 400.9375,0.9375 -82.843,200 m 0,0 82.843,200 m 0,0 -200,-82.843 m 0,0 -200,82.843 m 0,0 82.843,-200 m 0,0 -82.843,-200 m 0,0 200,82.843 m 0,0 200,-82.843 m 0,0 -141.422,141.422 m -58.578,58.578 -58.578,58.578 m 117.156,0 -58.578,58.579 m 0,0 0,-234.314 m 0,0 117.157,117.157 m 0,0 -234.314,0 m 0,0 58.579,-58.578" /><g
       id="g5487"
       transform="matrix(0.19021534,0,0,0.19021534,205.36708,6.3916359)"
       inkscape:label="Hershey Text"><path
         id="path5489"
         transform="translate(9,0)"
         style="fill:none;stroke:#000000"
         d="m 6,-2 -2,-2 -2,-1 -3,0 -2,1 -2,2 -1,3 0,2 1,3 2,2 2,1 3,0 2,-1 2,-2"
         inkscape:connector-curvature="0" /><path
         id="path5491"
         transform="translate(27,0)"
         style="fill:none;stroke:#000000"
         d="m -1,-5 -2,1 -2,2 -1,3 0,2 1,3 2,2 2,1 L 2,9 4,8 6,6 7,3 7,1 6,-2 4,-4 2,-5 -1,-5"
         inkscape:connector-curvature="0" /><path
         id="path5493"
         transform="translate(52,0)"
         style="fill:none;stroke:#000000"
         d="m -11,-5 0,14 m 0,-10 3,-3 2,-1 3,0 2,1 1,3 0,10 m 0,-10 3,-3 2,-1 3,0 2,1 1,3 0,10"
         inkscape:connector-curvature="0" /><path
         id="path5495"
         transform="translate(82,0)"
         style="fill:none;stroke:#000000"
         d="m -11,-5 0,14 m 0,-10 3,-3 2,-1 3,0 2,1 1,3 0,10 m 0,-10 3,-3 2,-1 3,0 2,1 1,3 0,10"
         inkscape:connector-curvature="0" /><path
         id="path5497"
         transform="translate(106,0)"
         style="fill:none;stroke:#000000"
         d="m -1,-5 -2,1 -2,2 -1,3 0,2 1,3 2,2 2,1 L 2,9 4,8 6,6 7,3 7,1 6,-2 4,-4 2,-5 -1,-5"
         inkscape:connector-curvature="0" /><path
         id="path5499"
         transform="translate(125,0)"
         style="fill:none;stroke:#000000"
         d="m -5,-5 0,14 m 0,-10 3,-3 2,-1 3,0 2,1 1,3 0,10"
         inkscape:connector-curvature="0" /><path
         id="path5501"
         transform="translate(143,0)"
         style="fill:none;stroke:#000000"
         d="m 6,-2 -1,-2 -3,-1 -3,0 -3,1 -1,2 1,2 2,1 L 3,2 5,3 6,5 6,6 5,8 2,9 -1,9 -4,8 -5,6"
         inkscape:connector-curvature="0" /><path
         id="path5503"
         transform="translate(156,0)"
         style="fill:none;stroke:#000000"
         d="M 0,4 -1,5 0,6 1,5 0,4"
         inkscape:connector-curvature="0" /><path
         id="path5505"
         transform="translate(171,0)"
         style="fill:none;stroke:#000000"
         d="M -8,-5 -4,9 M 0,-5 -4,9 M 0,-5 4,9 M 8,-5 4,9"
         inkscape:connector-curvature="0" /><path
         id="path5507"
         transform="translate(186,0)"
         style="fill:none;stroke:#000000"
         d="m -1,-12 1,1 1,-1 -1,-1 -1,1 m 1,7 0,14"
         inkscape:connector-curvature="0" /><path
         id="path5509"
         transform="translate(199,0)"
         style="fill:none;stroke:#000000"
         d="M -5,-12 -5,9 M 5,-5 -5,5 m 4,-4 7,8"
         inkscape:connector-curvature="0" /><path
         id="path5511"
         transform="translate(211,0)"
         style="fill:none;stroke:#000000"
         d="m -1,-12 1,1 1,-1 -1,-1 -1,1 m 1,7 0,14"
         inkscape:connector-curvature="0" /><path
         id="path5513"
         transform="translate(230,0)"
         style="fill:none;stroke:#000000"
         d="m -11,-5 0,14 m 0,-10 3,-3 2,-1 3,0 2,1 1,3 0,10 m 0,-10 3,-3 2,-1 3,0 2,1 1,3 0,10"
         inkscape:connector-curvature="0" /><path
         id="path5515"
         transform="translate(254,0)"
         style="fill:none;stroke:#000000"
         d="M -6,1 6,1 6,-1 5,-3 4,-4 2,-5 l -3,0 -2,1 -2,2 -1,3 0,2 1,3 2,2 2,1 3,0 2,-1 2,-2"
         inkscape:connector-curvature="0" /><path
         id="path5517"
         transform="translate(272,0)"
         style="fill:none;stroke:#000000"
         d="M 6,-12 6,9 M 6,-2 4,-4 2,-5 l -3,0 -2,1 -2,2 -1,3 0,2 1,3 2,2 2,1 3,0 2,-1 2,-2"
         inkscape:connector-curvature="0" /><path
         id="path5519"
         transform="translate(286,0)"
         style="fill:none;stroke:#000000"
         d="m -1,-12 1,1 1,-1 -1,-1 -1,1 m 1,7 0,14"
         inkscape:connector-curvature="0" /><path
         id="path5521"
         transform="translate(299,0)"
         style="fill:none;stroke:#000000"
         d="M 6,-5 6,9 M 6,-2 4,-4 2,-5 l -3,0 -2,1 -2,2 -1,3 0,2 1,3 2,2 2,1 3,0 2,-1 2,-2"
         inkscape:connector-curvature="0" /><path
         id="path5523"
         transform="translate(313,0)"
         style="fill:none;stroke:#000000"
         d="M 0,4 -1,5 0,6 1,5 0,4"
         inkscape:connector-curvature="0" /><path
         id="path5525"
         transform="translate(326,0)"
         style="fill:none;stroke:#000000"
         d="m -1,-5 -2,1 -2,2 -1,3 0,2 1,3 2,2 2,1 L 2,9 4,8 6,6 7,3 7,1 6,-2 4,-4 2,-5 -1,-5"
         inkscape:connector-curvature="0" /><path
         id="path5527"
         transform="translate(343,0)"
         style="fill:none;stroke:#000000"
         d="m -3,-5 0,14 m 0,-8 1,-3 2,-2 2,-1 3,0"
         inkscape:connector-curvature="0" /><path
         id="path5529"
         transform="translate(358,0)"
         style="fill:none;stroke:#000000"
         d="m 6,-5 0,16 -1,3 -1,1 -2,1 -3,0 -2,-1 M 6,-2 4,-4 2,-5 l -3,0 -2,1 -2,2 -1,3 0,2 1,3 2,2 2,1 3,0 2,-1 2,-2"
         inkscape:connector-curvature="0" /><path
         id="path5531"
         transform="translate(379,0)"
         style="fill:none;stroke:#000000"
         d="M 9,-16 -9,16"
         inkscape:connector-curvature="0" /><path
         id="path5533"
         transform="translate(401,0)"
         style="fill:none;stroke:#000000"
         d="M -8,-5 -4,9 M 0,-5 -4,9 M 0,-5 4,9 M 8,-5 4,9"
         inkscape:connector-curvature="0" /><path
         id="path5535"
         transform="translate(416,0)"
         style="fill:none;stroke:#000000"
         d="m -1,-12 1,1 1,-1 -1,-1 -1,1 m 1,7 0,14"
         inkscape:connector-curvature="0" /><path
         id="path5537"
         transform="translate(429,0)"
         style="fill:none;stroke:#000000"
         d="M -5,-12 -5,9 M 5,-5 -5,5 m 4,-4 7,8"
         inkscape:connector-curvature="0" /><path
         id="path5539"
         transform="translate(441,0)"
         style="fill:none;stroke:#000000"
         d="m -1,-12 1,1 1,-1 -1,-1 -1,1 m 1,7 0,14"
         inkscape:connector-curvature="0" /><path
         id="path5541"
         transform="translate(456,0)"
         style="fill:none;stroke:#000000"
         d="M 9,-16 -9,16"
         inkscape:connector-curvature="0" /><path
         id="path5543"
         transform="translate(477,0)"
         style="fill:none;stroke:#000000"
         d="m -6,-12 0,21 m 0,-21 13,0 m -13,10 8,0"
         inkscape:connector-curvature="0" /><path
         id="path5545"
         transform="translate(489,0)"
         style="fill:none;stroke:#000000"
         d="m -1,-12 1,1 1,-1 -1,-1 -1,1 m 1,7 0,14"
         inkscape:connector-curvature="0" /><path
         id="path5547"
         transform="translate(497,0)"
         style="fill:none;stroke:#000000"
         d="M 0,-12 0,9"
         inkscape:connector-curvature="0" /><path
         id="path5549"
         transform="translate(510,0)"
         style="fill:none;stroke:#000000"
         d="M -6,1 6,1 6,-1 5,-3 4,-4 2,-5 l -3,0 -2,1 -2,2 -1,3 0,2 1,3 2,2 2,1 3,0 2,-1 2,-2"
         inkscape:connector-curvature="0" /><path
         id="path5551"
         transform="translate(523,0)"
         style="fill:none;stroke:#000000"
         d="m 0,-3 -1,1 1,1 1,-1 -1,-1 M 0,4 -1,5 0,6 1,5 0,4"
         inkscape:connector-curvature="0" /><path
         id="path5553"
         transform="translate(539,0)"
         style="fill:none;stroke:#000000"
         d="M -8,-12 -8,9 M -8,-12 0,9 M 8,-12 0,9 M 8,-12 8,9"
         inkscape:connector-curvature="0" /><path
         id="path5555"
         transform="translate(560,0)"
         style="fill:none;stroke:#000000"
         d="M 6,-5 6,9 M 6,-2 4,-4 2,-5 l -3,0 -2,1 -2,2 -1,3 0,2 1,3 2,2 2,1 3,0 2,-1 2,-2"
         inkscape:connector-curvature="0" /><path
         id="path5557"
         transform="translate(579,0)"
         style="fill:none;stroke:#000000"
         d="M -6,1 6,1 6,-1 5,-3 4,-4 2,-5 l -3,0 -2,1 -2,2 -1,3 0,2 1,3 2,2 2,1 3,0 2,-1 2,-2"
         inkscape:connector-curvature="0" /><path
         id="path5559"
         transform="translate(597,0)"
         style="fill:none;stroke:#000000"
         d="M -5,-12 -5,9 M 5,-5 -5,5 m 4,-4 7,8"
         inkscape:connector-curvature="0" /><path
         id="path5561"
         transform="translate(614,0)"
         style="fill:none;stroke:#000000"
         d="M 6,-5 6,9 M 6,-2 4,-4 2,-5 l -3,0 -2,1 -2,2 -1,3 0,2 1,3 2,2 2,1 3,0 2,-1 2,-2"
         inkscape:connector-curvature="0" /><path
         id="path5563"
         transform="translate(635,0)"
         style="fill:none;stroke:#000000"
         d="M -8,-5 -4,9 M 0,-5 -4,9 M 0,-5 4,9 M 8,-5 4,9"
         inkscape:connector-curvature="0" /><path
         id="path5565"
         transform="translate(655,0)"
         style="fill:none;stroke:#000000"
         d="M 6,-5 6,9 M 6,-2 4,-4 2,-5 l -3,0 -2,1 -2,2 -1,3 0,2 1,3 2,2 2,1 3,0 2,-1 2,-2"
         inkscape:connector-curvature="0" /><path
         id="path5567"
         transform="translate(673,0)"
         style="fill:none;stroke:#000000"
         d="m 6,-2 -1,-2 -3,-1 -3,0 -3,1 -1,2 1,2 2,1 L 3,2 5,3 6,5 6,6 5,8 2,9 -1,9 -4,8 -5,6"
         inkscape:connector-curvature="0" /><path
         id="path5569"
         transform="translate(691,0)"
         style="fill:none;stroke:#000000"
         d="M -9,16 9,16"
         inkscape:connector-curvature="0" /><path
         id="path5571"
         transform="translate(708,0)"
         style="fill:none;stroke:#000000"
         d="M 0,-12 0,9 m -7,-21 14,0"
         inkscape:connector-curvature="0" /><path
         id="path5573"
         transform="translate(725,0)"
         style="fill:none;stroke:#000000"
         d="m -5,-12 0,21 m 0,-10 3,-3 2,-1 3,0 2,1 1,3 0,10"
         inkscape:connector-curvature="0" /><path
         id="path5575"
         transform="translate(744,0)"
         style="fill:none;stroke:#000000"
         d="M -6,1 6,1 6,-1 5,-3 4,-4 2,-5 l -3,0 -2,1 -2,2 -1,3 0,2 1,3 2,2 2,1 3,0 2,-1 2,-2"
         inkscape:connector-curvature="0" /><path
         id="path5577"
         transform="translate(762,0)"
         style="fill:none;stroke:#000000"
         d="m -1,-5 -2,1 -2,2 -1,3 0,2 1,3 2,2 2,1 L 2,9 4,8 6,6 7,3 7,1 6,-2 4,-4 2,-5 -1,-5"
         inkscape:connector-curvature="0" /><path
         id="path5579"
         transform="translate(779,0)"
         style="fill:none;stroke:#000000"
         d="m -3,-5 0,14 m 0,-8 1,-3 2,-2 2,-1 3,0"
         inkscape:connector-curvature="0" /><path
         id="path5581"
         transform="translate(794,0)"
         style="fill:none;stroke:#000000"
         d="M -6,1 6,1 6,-1 5,-3 4,-4 2,-5 l -3,0 -2,1 -2,2 -1,3 0,2 1,3 2,2 2,1 3,0 2,-1 2,-2"
         inkscape:connector-curvature="0" /><path
         id="path5583"
         transform="translate(818,0)"
         style="fill:none;stroke:#000000"
         d="m -11,-5 0,14 m 0,-10 3,-3 2,-1 3,0 2,1 1,3 0,10 m 0,-10 3,-3 2,-1 3,0 2,1 1,3 0,10"
         inkscape:connector-curvature="0" /><path
         id="path5585"
         transform="translate(837,0)"
         style="fill:none;stroke:#000000"
         d="M 0,4 -1,5 0,6 1,5 0,4"
         inkscape:connector-curvature="0" /><path
         id="path5587"
         transform="translate(849,0)"
         style="fill:none;stroke:#000000"
         d="m 6,-2 -1,-2 -3,-1 -3,0 -3,1 -1,2 1,2 2,1 L 3,2 5,3 6,5 6,6 5,8 2,9 -1,9 -4,8 -5,6"
         inkscape:connector-curvature="0" /><path
         id="path5589"
         transform="translate(866,0)"
         style="fill:none;stroke:#000000"
         d="M -6,-5 0,9 M 6,-5 0,9"
         inkscape:connector-curvature="0" /><path
         id="path5591"
         transform="translate(883,0)"
         style="fill:none;stroke:#000000"
         d="m 6,-5 0,16 -1,3 -1,1 -2,1 -3,0 -2,-1 M 6,-2 4,-4 2,-5 l -3,0 -2,1 -2,2 -1,3 0,2 1,3 2,2 2,1 3,0 2,-1 2,-2"
         inkscape:connector-curvature="0" /></g></g><g
     id="g5593"
     transform="matrix(0.81303841,0,0,0.81303841,309.36172,623.14041)"><path
       d="m 0.9375,0.9375 400,0 0,400 -400,0 0,-400 z"
       id="path5595"
       style="fill:none;stroke:#ff00ff;stroke-linejoin:round"
       inkscape:connector-curvature="0" /><path
       d="m 0.9375,0.9375 400,400 m -258.578,-258.578 58.578,-58.579 m 0,0 0,-82.843 m 58.578,258.578 58.579,-58.578 m 0,0 82.843,0 m -400,0 82.843,0 m 0,0 117.157,117.157 m 58.578,-175.735 -58.578,58.578 m 0,117.157 0,82.843 m -200,0 141.422,-141.422"
       id="path5597"
       style="fill:none;stroke:#0000ff;stroke-width:2;stroke-miterlimit:4;stroke-dasharray:none"
       inkscape:connector-curvature="0" /><path
       d="m 400.9375,0.9375 -82.843,200 m 0,0 82.843,200 m 0,0 -200,-82.843 m 0,0 -200,82.843 m 0,0 82.843,-200 m 0,0 -82.843,-200 m 0,0 200,82.843 m 0,0 200,-82.843 m 0,0 -141.422,141.422 m -58.578,58.578 -58.578,58.578 m 117.156,0 -58.578,58.579 m 0,0 0,-234.314 m 0,0 117.157,117.157 m 0,0 -234.314,0 m 0,0 58.579,-58.578"
       id="path5599"
       style="fill:none;stroke:#ff0000;stroke-width:2;stroke-miterlimit:4;stroke-dasharray:none"
       inkscape:connector-curvature="0" /><g
       inkscape:label="Hershey Text"
       transform="matrix(0.19021534,0,0,0.19021534,205.36708,6.3916359)"
       id="g5601"><path
         inkscape:connector-curvature="0"
         d="m 6,-2 -2,-2 -2,-1 -3,0 -2,1 -2,2 -1,3 0,2 1,3 2,2 2,1 3,0 2,-1 2,-2"
         style="fill:none;stroke:#000000"
         transform="translate(9,0)"
         id="path5603" /><path
         inkscape:connector-curvature="0"
         d="m -1,-5 -2,1 -2,2 -1,3 0,2 1,3 2,2 2,1 L 2,9 4,8 6,6 7,3 7,1 6,-2 4,-4 2,-5 -1,-5"
         style="fill:none;stroke:#000000"
         transform="translate(27,0)"
         id="path5605" /><path
         inkscape:connector-curvature="0"
         d="m -11,-5 0,14 m 0,-10 3,-3 2,-1 3,0 2,1 1,3 0,10 m 0,-10 3,-3 2,-1 3,0 2,1 1,3 0,10"
         style="fill:none;stroke:#000000"
         transform="translate(52,0)"
         id="path5607" /><path
         inkscape:connector-curvature="0"
         d="m -11,-5 0,14 m 0,-10 3,-3 2,-1 3,0 2,1 1,3 0,10 m 0,-10 3,-3 2,-1 3,0 2,1 1,3 0,10"
         style="fill:none;stroke:#000000"
         transform="translate(82,0)"
         id="path5609" /><path
         inkscape:connector-curvature="0"
         d="m -1,-5 -2,1 -2,2 -1,3 0,2 1,3 2,2 2,1 L 2,9 4,8 6,6 7,3 7,1 6,-2 4,-4 2,-5 -1,-5"
         style="fill:none;stroke:#000000"
         transform="translate(106,0)"
         id="path5611" /><path
         inkscape:connector-curvature="0"
         d="m -5,-5 0,14 m 0,-10 3,-3 2,-1 3,0 2,1 1,3 0,10"
         style="fill:none;stroke:#000000"
         transform="translate(125,0)"
         id="path5613" /><path
         inkscape:connector-curvature="0"
         d="m 6,-2 -1,-2 -3,-1 -3,0 -3,1 -1,2 1,2 2,1 L 3,2 5,3 6,5 6,6 5,8 2,9 -1,9 -4,8 -5,6"
         style="fill:none;stroke:#000000"
         transform="translate(143,0)"
         id="path5615" /><path
         inkscape:connector-curvature="0"
         d="M 0,4 -1,5 0,6 1,5 0,4"
         style="fill:none;stroke:#000000"
         transform="translate(156,0)"
         id="path5617" /><path
         inkscape:connector-curvature="0"
         d="M -8,-5 -4,9 M 0,-5 -4,9 M 0,-5 4,9 M 8,-5 4,9"
         style="fill:none;stroke:#000000"
         transform="translate(171,0)"
         id="path5619" /><path
         inkscape:connector-curvature="0"
         d="m -1,-12 1,1 1,-1 -1,-1 -1,1 m 1,7 0,14"
         style="fill:none;stroke:#000000"
         transform="translate(186,0)"
         id="path5621" /><path
         inkscape:connector-curvature="0"
         d="M -5,-12 -5,9 M 5,-5 -5,5 m 4,-4 7,8"
         style="fill:none;stroke:#000000"
         transform="translate(199,0)"
         id="path5623" /><path
         inkscape:connector-curvature="0"
         d="m -1,-12 1,1 1,-1 -1,-1 -1,1 m 1,7 0,14"
         style="fill:none;stroke:#000000"
         transform="translate(211,0)"
         id="path5625" /><path
         inkscape:connector-curvature="0"
         d="m -11,-5 0,14 m 0,-10 3,-3 2,-1 3,0 2,1 1,3 0,10 m 0,-10 3,-3 2,-1 3,0 2,1 1,3 0,10"
         style="fill:none;stroke:#000000"
         transform="translate(230,0)"
         id="path5627" /><path
         inkscape:connector-curvature="0"
         d="M -6,1 6,1 6,-1 5,-3 4,-4 2,-5 l -3,0 -2,1 -2,2 -1,3 0,2 1,3 2,2 2,1 3,0 2,-1 2,-2"
         style="fill:none;stroke:#000000"
         transform="translate(254,0)"
         id="path5629" /><path
         inkscape:connector-curvature="0"
         d="M 6,-12 6,9 M 6,-2 4,-4 2,-5 l -3,0 -2,1 -2,2 -1,3 0,2 1,3 2,2 2,1 3,0 2,-1 2,-2"
         style="fill:none;stroke:#000000"
         transform="translate(272,0)"
         id="path5631" /><path
         inkscape:connector-curvature="0"
         d="m -1,-12 1,1 1,-1 -1,-1 -1,1 m 1,7 0,14"
         style="fill:none;stroke:#000000"
         transform="translate(286,0)"
         id="path5633" /><path
         inkscape:connector-curvature="0"
         d="M 6,-5 6,9 M 6,-2 4,-4 2,-5 l -3,0 -2,1 -2,2 -1,3 0,2 1,3 2,2 2,1 3,0 2,-1 2,-2"
         style="fill:none;stroke:#000000"
         transform="translate(299,0)"
         id="path5635" /><path
         inkscape:connector-curvature="0"
         d="M 0,4 -1,5 0,6 1,5 0,4"
         style="fill:none;stroke:#000000"
         transform="translate(313,0)"
         id="path5637" /><path
         inkscape:connector-curvature="0"
         d="m -1,-5 -2,1 -2,2 -1,3 0,2 1,3 2,2 2,1 L 2,9 4,8 6,6 7,3 7,1 6,-2 4,-4 2,-5 -1,-5"
         style="fill:none;stroke:#000000"
         transform="translate(326,0)"
         id="path5639" /><path
         inkscape:connector-curvature="0"
         d="m -3,-5 0,14 m 0,-8 1,-3 2,-2 2,-1 3,0"
         style="fill:none;stroke:#000000"
         transform="translate(343,0)"
         id="path5641" /><path
         inkscape:connector-curvature="0"
         d="m 6,-5 0,16 -1,3 -1,1 -2,1 -3,0 -2,-1 M 6,-2 4,-4 2,-5 l -3,0 -2,1 -2,2 -1,3 0,2 1,3 2,2 2,1 3,0 2,-1 2,-2"
         style="fill:none;stroke:#000000"
         transform="translate(358,0)"
         id="path5643" /><path
         inkscape:connector-curvature="0"
         d="M 9,-16 -9,16"
         style="fill:none;stroke:#000000"
         transform="translate(379,0)"
         id="path5645" /><path
         inkscape:connector-curvature="0"
         d="M -8,-5 -4,9 M 0,-5 -4,9 M 0,-5 4,9 M 8,-5 4,9"
         style="fill:none;stroke:#000000"
         transform="translate(401,0)"
         id="path5647" /><path
         inkscape:connector-curvature="0"
         d="m -1,-12 1,1 1,-1 -1,-1 -1,1 m 1,7 0,14"
         style="fill:none;stroke:#000000"
         transform="translate(416,0)"
         id="path5649" /><path
         inkscape:connector-curvature="0"
         d="M -5,-12 -5,9 M 5,-5 -5,5 m 4,-4 7,8"
         style="fill:none;stroke:#000000"
         transform="translate(429,0)"
         id="path5651" /><path
         inkscape:connector-curvature="0"
         d="m -1,-12 1,1 1,-1 -1,-1 -1,1 m 1,7 0,14"
         style="fill:none;stroke:#000000"
         transform="translate(441,0)"
         id="path5653" /><path
         inkscape:connector-curvature="0"
         d="M 9,-16 -9,16"
         style="fill:none;stroke:#000000"
         transform="translate(456,0)"
         id="path5655" /><path
         inkscape:connector-curvature="0"
         d="m -6,-12 0,21 m 0,-21 13,0 m -13,10 8,0"
         style="fill:none;stroke:#000000"
         transform="translate(477,0)"
         id="path5657" /><path
         inkscape:connector-curvature="0"
         d="m -1,-12 1,1 1,-1 -1,-1 -1,1 m 1,7 0,14"
         style="fill:none;stroke:#000000"
         transform="translate(489,0)"
         id="path5659" /><path
         inkscape:connector-curvature="0"
         d="M 0,-12 0,9"
         style="fill:none;stroke:#000000"
         transform="translate(497,0)"
         id="path5661" /><path
         inkscape:connector-curvature="0"
         d="M -6,1 6,1 6,-1 5,-3 4,-4 2,-5 l -3,0 -2,1 -2,2 -1,3 0,2 1,3 2,2 2,1 3,0 2,-1 2,-2"
         style="fill:none;stroke:#000000"
         transform="translate(510,0)"
         id="path5663" /><path
         inkscape:connector-curvature="0"
         d="m 0,-3 -1,1 1,1 1,-1 -1,-1 M 0,4 -1,5 0,6 1,5 0,4"
         style="fill:none;stroke:#000000"
         transform="translate(523,0)"
         id="path5665" /><path
         inkscape:connector-curvature="0"
         d="M -8,-12 -8,9 M -8,-12 0,9 M 8,-12 0,9 M 8,-12 8,9"
         style="fill:none;stroke:#000000"
         transform="translate(539,0)"
         id="path5667" /><path
         inkscape:connector-curvature="0"
         d="M 6,-5 6,9 M 6,-2 4,-4 2,-5 l -3,0 -2,1 -2,2 -1,3 0,2 1,3 2,2 2,1 3,0 2,-1 2,-2"
         style="fill:none;stroke:#000000"
         transform="translate(560,0)"
         id="path5669" /><path
         inkscape:connector-curvature="0"
         d="M -6,1 6,1 6,-1 5,-3 4,-4 2,-5 l -3,0 -2,1 -2,2 -1,3 0,2 1,3 2,2 2,1 3,0 2,-1 2,-2"
         style="fill:none;stroke:#000000"
         transform="translate(579,0)"
         id="path5671" /><path
         inkscape:connector-curvature="0"
         d="M -5,-12 -5,9 M 5,-5 -5,5 m 4,-4 7,8"
         style="fill:none;stroke:#000000"
         transform="translate(597,0)"
         id="path5673" /><path
         inkscape:connector-curvature="0"
         d="M 6,-5 6,9 M 6,-2 4,-4 2,-5 l -3,0 -2,1 -2,2 -1,3 0,2 1,3 2,2 2,1 3,0 2,-1 2,-2"
         style="fill:none;stroke:#000000"
         transform="translate(614,0)"
         id="path5675" /><path
         inkscape:connector-curvature="0"
         d="M -8,-5 -4,9 M 0,-5 -4,9 M 0,-5 4,9 M 8,-5 4,9"
         style="fill:none;stroke:#000000"
         transform="translate(635,0)"
         id="path5677" /><path
         inkscape:connector-curvature="0"
         d="M 6,-5 6,9 M 6,-2 4,-4 2,-5 l -3,0 -2,1 -2,2 -1,3 0,2 1,3 2,2 2,1 3,0 2,-1 2,-2"
         style="fill:none;stroke:#000000"
         transform="translate(655,0)"
         id="path5679" /><path
         inkscape:connector-curvature="0"
         d="m 6,-2 -1,-2 -3,-1 -3,0 -3,1 -1,2 1,2 2,1 L 3,2 5,3 6,5 6,6 5,8 2,9 -1,9 -4,8 -5,6"
         style="fill:none;stroke:#000000"
         transform="translate(673,0)"
         id="path5681" /><path
         inkscape:connector-curvature="0"
         d="M -9,16 9,16"
         style="fill:none;stroke:#000000"
         transform="translate(691,0)"
         id="path5683" /><path
         inkscape:connector-curvature="0"
         d="M 0,-12 0,9 m -7,-21 14,0"
         style="fill:none;stroke:#000000"
         transform="translate(708,0)"
         id="path5685" /><path
         inkscape:connector-curvature="0"
         d="m -5,-12 0,21 m 0,-10 3,-3 2,-1 3,0 2,1 1,3 0,10"
         style="fill:none;stroke:#000000"
         transform="translate(725,0)"
         id="path5687" /><path
         inkscape:connector-curvature="0"
         d="M -6,1 6,1 6,-1 5,-3 4,-4 2,-5 l -3,0 -2,1 -2,2 -1,3 0,2 1,3 2,2 2,1 3,0 2,-1 2,-2"
         style="fill:none;stroke:#000000"
         transform="translate(744,0)"
         id="path5689" /><path
         inkscape:connector-curvature="0"
         d="m -1,-5 -2,1 -2,2 -1,3 0,2 1,3 2,2 2,1 L 2,9 4,8 6,6 7,3 7,1 6,-2 4,-4 2,-5 -1,-5"
         style="fill:none;stroke:#000000"
         transform="translate(762,0)"
         id="path5691" /><path
         inkscape:connector-curvature="0"
         d="m -3,-5 0,14 m 0,-8 1,-3 2,-2 2,-1 3,0"
         style="fill:none;stroke:#000000"
         transform="translate(779,0)"
         id="path5693" /><path
         inkscape:connector-curvature="0"
         d="M -6,1 6,1 6,-1 5,-3 4,-4 2,-5 l -3,0 -2,1 -2,2 -1,3 0,2 1,3 2,2 2,1 3,0 2,-1 2,-2"
         style="fill:none;stroke:#000000"
         transform="translate(794,0)"
         id="path5695" /><path
         inkscape:connector-curvature="0"
         d="m -11,-5 0,14 m 0,-10 3,-3 2,-1 3,0 2,1 1,3 0,10 m 0,-10 3,-3 2,-1 3,0 2,1 1,3 0,10"
         style="fill:none;stroke:#000000"
         transform="translate(818,0)"
         id="path5697" /><path
         inkscape:connector-curvature="0"
         d="M 0,4 -1,5 0,6 1,5 0,4"
         style="fill:none;stroke:#000000"
         transform="translate(837,0)"
         id="path5699" /><path
         inkscape:connector-curvature="0"
         d="m 6,-2 -1,-2 -3,-1 -3,0 -3,1 -1,2 1,2 2,1 L 3,2 5,3 6,5 6,6 5,8 2,9 -1,9 -4,8 -5,6"
         style="fill:none;stroke:#000000"
         transform="translate(849,0)"
         id="path5701" /><path
         inkscape:connector-curvature="0"
         d="M -6,-5 0,9 M 6,-5 0,9"
         style="fill:none;stroke:#000000"
         transform="translate(866,0)"
         id="path5703" /><path
         inkscape:connector-curvature="0"
         d="m 6,-5 0,16 -1,3 -1,1 -2,1 -3,0 -2,-1 M 6,-2 4,-4 2,-5 l -3,0 -2,1 -2,2 -1,3 0,2 1,3 2,2 2,1 3,0 2,-1 2,-2"
         style="fill:none;stroke:#000000"
         transform="translate(883,0)"
         id="path5705" /></g></g></svg>