<svg xmlns="http://www.w3.org/2000/svg" version="1.1" x="0" y="0" width="432" height="432" viewBox="0 0 432 432" enable-background="new 0 0 432 432" xml:space="preserve"><style>path,polygon,rect{fill:#960C22;}</style><path d="M216 426.65c117.07 0 212.28-94.9 212.28-211.47C428.28 98.56 333.07 3.71 216 3.71 98.93 3.71 3.72 98.56 3.72 215.18 3.72 331.75 98.93 426.65 216 426.65M216 0c119.13 0 216 96.52 216 215.18 0 118.67-96.87 215.18-216 215.18C96.88 430.37 0 333.85 0 215.18 0 96.52 96.88 0 216 0M216 26.73c-104.32 0-189.16 84.52-189.16 188.45 0 103.88 84.84 188.45 189.17 188.45 104.33 0 189.17-84.57 189.17-188.44C405.16 111.25 320.33 26.73 216 26.73M216 29.29c102.89 0 186.6 83.39 186.6 185.89 0 102.5-83.71 185.88-186.6 185.88 -102.89 0-186.6-83.38-186.6-185.88C29.4 112.68 113.11 29.29 216 29.29M264.14 17.7c-0.21 0.63-0.42 1.28-0.63 1.92 -0.69 2.12-1.4 4.28-2.14 6.5 -0.1 0.66 0 1.57 0 2.24 3.46 0.8 6.91 1.71 10.26 2.73 1.03-4.18 1.88-8.21 2.75-12v-2.24c-3.02-0.86-6.05-1.66-9.12-2.41C264.87 15.51 264.5 16.6 264.14 17.7M237.96 24.29c1.72 0.19 3.43 0.4 5.15 0.64 0.26-4.29 0.6-8.42 0.81-12.28v-2.24c-2.18-0.3-4.35-0.53-6.54-0.74 -0.25-0.02-0.49-0.06-0.74-0.08 -0.72-0.07-1.45-0.13-2.18-0.19 -0.65 3.81-1.3 7.89-1.94 12.11 -0.05 0.67 0 1.57 0 2.24 1.13 0.1 2.24 0.22 3.35 0.33C236.57 24.15 237.27 24.22 237.96 24.29M194.05 406.07c-1.72-0.19-3.44-0.4-5.16-0.63 -0.32 4.22-0.6 8.36-0.82 12.22 -0.02 0.67 0 1.57 0 2.24 1.48 0.23 2.96 0.41 4.44 0.58 0.51 0.06 1.03 0.11 1.54 0.16 0.69 0.07 1.37 0.15 2.06 0.21 0.47 0.04 0.94 0.09 1.41 0.13 0.65-3.86 1.29-7.94 1.94-12.11v-2.24c-1.25-0.11-2.49-0.24-3.73-0.37C195.18 406.18 194.62 406.13 194.05 406.07M219.13 8.6c-0.39 3.86-0.76 7.98-1.08 12.27 -0.02 0.67 0 1.57 0 2.24 3.56 0 7.08 0.17 10.58 0.39v-2.24c0-4.29 0-8.43-0.06-12.33C225.46 8.77 222.31 8.64 219.13 8.6M298.84 41.44c1.62-3.97 3.13-7.82 4.47-11.48v-2.24c-2.85-1.34-5.72-2.56-8.62-3.73 -1.79 3.43-3.69 7.12-5.57 10.97 -0.15 0.66 0 1.57 0 2.24C292.42 38.55 295.66 39.94 298.84 41.44M302.25 43.04c1.55 0.79 3.09 1.57 4.62 2.38 0.46 0.24 0.91 0.5 1.37 0.75 1.14 0.61 2.28 1.22 3.41 1.87 1.82-3.87 3.61-7.61 5.23-11.16v-2.24c-2.76-1.55-5.51-3-8.37-4.4 -1.99 3.34-4.09 6.87-6.25 10.56C302.07 41.45 302.25 42.37 302.25 43.04M315.15 50.06c3.09 1.77 6.05 3.64 8.97 5.63 2.21-3.75 4.26-7.29 6.16-10.65v-2.24c-2.59-1.78-5.29-3.43-7.99-5.06 -2.27 3.17-4.64 6.55-7.13 10.08C314.94 48.46 315.15 49.39 315.15 50.06M327.29 57.82c2.93 2.04 5.79 4.13 8.59 6.29 2.42-3.55 4.75-6.92 6.91-10.19v-2.24c-2.5-1.92-5.03-3.81-7.6-5.62 -2.55 3-5.14 6.22-7.9 9.53C327.06 56.22 327.29 57.15 327.29 57.82M338.97 66.57c2.75 2.26 5.45 4.5 8.04 6.92 2.7-3.33 5.29-6.59 7.73-9.65v-2.24c-2.39-2.09-4.77-4.18-7.19-6.16 -2.76 2.8-5.62 5.79-8.58 8.9C338.72 64.95 338.97 65.9 338.97 66.57M349.86 76.05c2.54 2.48 5.09 4.93 7.51 7.5 2.91-3.15 5.72-6.16 8.36-9.05v-2.24c-2.16-2.3-4.43-4.5-6.69-6.64 -2.9 2.57-5.99 5.3-9.18 8.19V76.05zM360.03 86.4c2.38 2.57 4.69 5.26 6.9 7.99 3.19-2.95 6.22-5.73 9.03-8.48v-2.24c-1.99-2.4-4.04-4.77-6.16-7.12 -3.13 2.41-6.37 4.93-9.77 7.61V86.4zM369.36 97.39c2.21 2.74 4.32 5.56 6.31 8.47 3.41-2.68 6.59-5.26 9.61-7.78v-2.24c-1.77-2.56-3.72-5.09-5.61-7.55 -3.29 2.14-6.74 4.44-10.31 6.86V97.39zM377.96 109.13c1.99 2.93 3.87 5.89 5.66 8.94 3.56-2.43 6.96-4.72 10.2-6.98v-2.24c-1.6-2.72-3.29-5.35-5.08-7.98 -3.46 1.87-7.07 3.92-10.78 6.01V109.13zM385.61 121.46c1.73 3.04 3.41 6.16 4.97 9.32 3.73-2.14 7.36-4.18 10.69-6.21v-2.24c-1.4-2.8-2.91-5.58-4.43-8.31 -3.56 1.66-7.34 3.38-11.23 5.21V121.46zM392.31 134.31c1.51 3.22 2.93 6.42 4.27 9.7 3.89-1.87 7.62-3.69 11.12-5.41v-2.24c-1.19-2.89-2.44-5.8-3.78-8.58 -3.67 1.34-7.56 2.78-11.62 4.29V134.31zM397.94 147.43c1.3 3.27 2.42 6.64 3.55 9.98 4.01-1.55 7.84-3.11 11.45-4.61v-2.24c-0.95-3-1.99-5.95-3.13-8.9 -3.78 1.07-7.71 2.31-11.86 3.54V147.43zM247.1 23.28c-0.08 0.67 0 1.57 0 2.24 3.51 0.59 6.96 1.23 10.43 1.98 0.63-4.23 1.23-8.36 1.77-12.15V13.1c-3.09-0.65-6.15-1.23-9.29-1.77C249.05 15.13 248.08 19.09 247.1 23.28M142.99 37.15v-2.24c-1.84-3.81-3.73-7.56-5.46-11.05 -2.96 1.23-5.86 2.47-8.75 3.81v2.24c1.4 3.65 2.88 7.5 4.49 11.47C136.45 39.89 139.7 38.49 142.99 37.15M129.76 43.1v-2.24c-2.16-3.7-4.26-7.29-6.26-10.62 -2.85 1.4-5.66 2.91-8.43 4.4v2.24c1.62 3.6 3.41 7.28 5.29 11.16C123.44 46.27 126.58 44.65 129.76 43.1M116.75 50.11v-2.24c-2.48-3.48-4.92-6.85-7.19-10.01 -2.75 1.6-5.45 3.32-8.04 5.03v2.24c1.94 3.38 4.04 6.98 6.22 10.62C110.7 53.81 113.68 51.94 116.75 50.11M104.59 57.89v-2.24c-2.68-3.32-5.34-6.48-7.87-9.48 -2.61 1.83-5.14 3.7-7.64 5.58v2.24c2.22 3.26 4.55 6.64 6.98 10.17C98.87 61.96 101.69 59.93 104.59 57.89M92.88 66.68v-2.24c-2.96-3.1-5.83-6.05-8.6-8.85 -2.48 2.04-4.86 4.09-7.23 6.22v2.24c2.48 3 5.09 6.21 7.78 9.55C87.48 71.23 90.13 68.92 92.88 66.68M74.57 83.61c2.44-2.58 4.92-5.04 7.52-7.46v-2.24c-3.18-2.89-6.26-5.62-9.24-8.25 -1.13 1.1-2.27 2.19-3.38 3.31 -1.12 1.11-2.22 2.24-3.3 3.39 -0.25 0.63 0 1.57 0 2.24C68.8 77.5 71.6 80.5 74.57 83.61M65.08 94.39c2.21-2.74 4.52-5.42 6.9-7.99v-2.24c-3.39-2.67-6.63-5.19-9.77-7.61 -2.11 2.35-4.16 4.72-6.16 7.18 -0.22 0.63 0 1.57 0 2.24C58.86 88.65 61.88 91.48 65.08 94.39M56.27 105.9c2.05-2.83 4.1-5.69 6.31-8.47v-2.24c-3.56-2.41-7.02-4.7-10.31-6.81 -1.94 2.47-3.83 5-5.62 7.56 -0.2 0.64 0 1.57 0 2.24C49.68 100.71 52.92 103.27 56.27 105.9M48.38 118.07c1.79-3.06 3.72-6.05 5.66-8.94v-2.24c-0.73-0.42-1.46-0.84-2.19-1.25 -0.84-0.48-1.66-0.93-2.49-1.4 -0.55-0.31-1.09-0.61-1.62-0.91 -1.52-0.85-3.03-1.68-4.5-2.49 -1.73 2.61-3.4 5.3-5.06 7.98 -0.18 0.65 0 1.57 0 2.24C41.41 113.29 44.82 115.65 48.38 118.07M41.47 130.73c1.56-3.17 3.24-6.27 4.97-9.33v-2.24c-3.89-1.87-7.62-3.64-11.23-5.25 -1.51 2.74-3.02 5.53-4.43 8.36 -0.16 0.65 0 1.57 0 2.24C34.17 126.48 37.74 128.57 41.47 130.73M35.47 143.9c1.34-3.26 2.76-6.53 4.27-9.7v-2.24c-4-1.55-7.88-3.06-11.56-4.4 -1.36 2.84-2.59 5.75-3.84 8.69 -0.13 0.66 0 1.57 0 2.24C27.86 140.25 31.58 142.02 35.47 143.9M275.34 29.98c-0.13 0.66 0 1.57 0 2.24 3.41 1.12 6.76 2.24 10.04 3.54 1.25-4.12 2.48-8.04 3.58-11.79v-2.24c-2.98-1.12-5.94-2.14-8.92-3.1C278.53 22.2 276.91 26.01 275.34 29.98M143.1 21.72v2.24c1.08 3.71 2.33 7.67 3.56 11.74 3.29-1.24 6.63-2.43 10.05-3.49v-2.24c-1.56-3.97-3.13-7.82-4.65-11.42C149.04 19.52 146.06 20.6 143.1 21.72M185.01 25.52v-2.24c-0.97-4.18-1.94-8.19-2.92-11.94 -3.07 0.48-6.22 1.08-9.24 1.71v2.24c0.49 3.86 1.09 7.93 1.73 12.17C177.98 26.7 181.5 26.05 185.01 25.52M199.43 23.75v-2.24c-0.66-4.23-1.3-8.3-2-12.11 -3.13 0.26-6.27 0.58-9.4 1.01v2.24c0.26 3.86 0.54 7.99 0.87 12.28C192.41 24.44 195.85 24.07 199.43 23.75M25.7 254.95c-0.76-3.43-1.4-6.9-2-10.39 -4.15 0.91-8.21 1.81-12.04 2.73v2.24c0.49 3.1 1.08 6.21 1.73 9.33 3.93-0.49 8.05-1.03 12.31-1.67V254.95zM29.38 269.15c-1.03-3.38-1.94-6.75-2.76-10.18 -4.1 1.23-8.1 2.52-11.82 3.75v2.24c0.76 3.04 1.56 6.06 2.49 9.12 3.83-0.81 7.88-1.72 12.1-2.69V269.15zM34.02 282.77c-1.25-3.27-2.44-6.59-3.52-9.98 -4 1.55-7.87 3.06-11.54 4.56v2.24c1.02 3 2.03 5.93 3.18 8.9 3.78-1.08 7.78-2.26 11.88-3.49V282.77zM39.79 296.15c-1.56-3.15-2.96-6.42-4.32-9.7 -3.83 1.87-7.54 3.7-11.12 5.47v2.24c1.25 2.89 2.55 5.78 3.89 8.68 3.69-1.4 7.56-2.91 11.56-4.46V296.15zM46.38 308.91c-1.71-3.04-3.39-6.16-4.97-9.37 -3.72 2.15-7.28 4.24-10.69 6.23v2.24c1.42 2.83 2.93 5.61 4.49 8.36 3.56-1.61 7.34-3.38 11.17-5.21V308.91zM54.05 321.24c-1.94-2.89-3.83-5.89-5.66-8.94 -3.52 2.41-6.97 4.77-10.15 7.02v2.24c1.62 2.68 3.29 5.35 5.08 7.98 3.46-1.88 7.07-3.91 10.74-6.06V321.24zM62.64 332.98c-2.21-2.78-4.32-5.62-6.32-8.51 -3.35 2.67-6.57 5.3-9.61 7.76v2.24c1.79 2.58 3.73 5.15 5.68 7.61 3.29-2.14 6.7-4.44 10.26-6.85V332.98zM71.97 343.97c-2.38-2.58-4.69-5.26-6.91-7.99 -3.18 2.89-6.2 5.73-9.01 8.42v2.24c1.99 2.39 4.1 4.81 6.2 7.18 3.15-2.41 6.39-4.94 9.72-7.61V343.97zM82.14 354.25c-2.6-2.41-5.09-4.93-7.51-7.5 -1.34 1.41-2.66 2.81-3.94 4.18 -0.1 0.11-0.19 0.21-0.29 0.32 -1.44 1.55-2.84 3.08-4.19 4.55 -0.24 0.63 0 1.57 0 2.24 2.22 2.26 4.43 4.5 6.76 6.7 2.96-2.58 6.03-5.36 9.18-8.25V354.25zM93.09 363.8c-2.76-2.26-5.45-4.5-8.1-6.92 -2.7 3.32-5.25 6.59-7.67 9.65 -0.22 0.64 0 1.57 0 2.24 2.38 2.14 4.75 4.18 7.24 6.21 2.7-2.84 5.57-5.84 8.53-8.94V363.8zM104.65 372.47c-2.92-1.97-5.72-4.06-8.53-6.27 -2.44 3.53-4.75 6.98-6.91 10.19 -0.2 0.64 0 1.57 0 2.24 2.48 1.92 5.03 3.81 7.61 5.63 2.48-3 5.13-6.21 7.84-9.54V372.47zM116.92 380.35c-3.04-1.83-6.06-3.69-9.03-5.62 -2.16 3.64-4.21 7.24-6.11 10.67 -0.17 0.65 0 1.57 0 2.24 2.65 1.71 5.29 3.43 8.05 5.04 2.27-3.17 4.65-6.59 7.08-10.08V380.35zM129.66 387.22c-3.19-1.55-6.33-3.23-9.41-4.94 -1.88 3.8-3.67 7.55-5.34 11.1 -0.15 0.66 0 1.57 0 2.24 2.76 1.49 5.56 3 8.42 4.38 2.06-3.32 4.15-6.85 6.33-10.55V387.22zM142.99 393.15c-3.29-1.28-6.54-2.72-9.72-4.23 -1.62 3.97-3.09 7.82-4.49 11.47 -0.12 0.66 0 1.57 0 2.24 2.87 1.34 5.79 2.63 8.7 3.8 1.77-3.47 3.67-7.18 5.51-11.03V393.15zM142.88 406.34c-0.1 0.66 0 1.57 0 2.24 2.96 1.07 5.99 2.15 8.96 3.11 1.51-3.58 3.13-7.39 4.75-11.36v-2.24c-3.4-1.08-6.76-2.24-10.05-3.53C145.26 398.63 144.01 402.59 142.88 406.34M203.58 8.92c-0.1 3.9-0.1 8.04-0.17 12.33 -0.01 0.67 0 1.57 0 2.24 3.52-0.28 7.08-0.39 10.65-0.39v-2.24c-0.32-4.29-0.71-8.41-1.03-12.27C209.85 8.64 206.71 8.77 203.58 8.92M157.79 16.79v2.24c0.86 3.81 1.73 7.88 2.7 12.06 3.35-1.03 6.8-1.93 10.26-2.73v-2.24c-1.3-4.14-2.6-8.04-3.78-11.74C163.9 15.13 160.81 15.93 157.79 16.79M402.63 161.22c1.03 3.37 1.95 6.75 2.75 10.18 4.17-1.29 8.1-2.52 11.84-3.69v-2.24c-0.76-3.06-1.56-6.12-2.44-9.13 -3.89 0.82-7.93 1.68-12.14 2.65V161.22zM406.3 175.25c0.76 3.43 1.4 6.86 1.94 10.34 4.21-0.9 8.26-1.87 12.1-2.78v-2.24c-0.54-3.12-1.13-6.23-1.79-9.27 -3.87 0.48-7.99 1.06-12.25 1.71V175.25zM406.24 255.1c-0.08 0.67 0 1.57 0 2.24 4.32 0.66 8.44 1.24 12.31 1.72 0.66-3.06 1.25-6.16 1.79-9.27v-2.24c-3.84-0.91-7.88-1.88-12.1-2.78C407.7 248.25 407.06 251.69 406.24 255.1M402.63 269.1c-0.1 0.66 0 1.57 0 2.24 4.21 0.97 8.25 1.81 12.14 2.61 0.88-3 1.68-5.99 2.44-9.05v-2.24c-3.73-1.23-7.67-2.46-11.84-3.75C404.57 262.34 403.66 265.77 402.63 269.1M400.34 276.22c-0.75 2.2-1.53 4.39-2.35 6.55 -0.12 0.66 0 1.57 0 2.24 4.16 1.23 8.1 2.41 11.88 3.49 0.53-1.38 1.04-2.77 1.54-4.18 0.17-0.47 0.32-0.94 0.49-1.41 0.23-0.66 0.46-1.32 0.68-1.99 0.14-0.43 0.28-0.85 0.42-1.28v-2.24c-3.62-1.51-7.5-3.06-11.51-4.61C401.12 273.95 400.73 275.08 400.34 276.22M392.21 296.21c-0.15 0.66 0 1.57 0 2.24 3.98 1.55 7.87 3.06 11.56 4.39 1.34-2.85 2.64-5.69 3.83-8.62v-2.24c-3.52-1.77-7.24-3.6-11.12-5.47C395.17 289.77 393.71 293 392.21 296.21M385.61 308.86c-0.17 0.65 0 1.57 0 2.24 3.89 1.81 7.67 3.58 11.23 5.19 1.51-2.73 3.02-5.52 4.43-8.3v-2.24c-3.33-2.04-6.96-4.07-10.69-6.22C389.02 302.7 387.34 305.81 385.61 308.86M377.96 321.24c-0.19 0.65 0 1.57 0 2.24 3.72 2.09 7.33 4.13 10.79 6.06 1.73-2.63 3.41-5.3 5.08-7.98v-2.24c-3.24-2.26-6.63-4.61-10.2-7.02C381.83 315.35 379.89 318.3 377.96 321.24M369.36 332.98c-0.22 0.64 0 1.57 0 2.24 3.56 2.41 6.96 4.72 10.26 6.86 1.95-2.46 3.84-4.98 5.66-7.55v-2.24c-3.02-2.52-6.26-5.15-9.61-7.77C373.64 327.4 371.52 330.24 369.36 332.98M360.03 343.97c-0.25 0.63 0 1.57 0 2.24 3.33 2.67 6.57 5.2 9.72 7.61 2.16-2.37 4.21-4.72 6.2-7.18V344.4c-2.81-2.69-5.83-5.53-9.01-8.42C364.72 338.71 362.4 341.39 360.03 343.97M349.86 354.25v2.24c3.13 2.89 6.22 5.67 9.13 8.25 1.74-1.61 3.44-3.29 5.1-5.01 0.54-0.56 1.1-1.11 1.63-1.68 0.01-0.01 0.01-0.01 0.02-0.02v-2.24c-2.58-2.89-5.45-5.88-8.36-9.01C354.95 349.32 352.4 351.84 349.86 354.25M338.84 363.84v2.24c2.92 3.16 5.79 6.16 8.49 8.96 2.48-2 4.86-4.03 7.23-6.18v-2.24c-2.42-3.1-4.97-6.32-7.67-9.63C344.31 359.36 341.61 361.65 338.84 363.84M327.18 372.57v2.24c2.7 3.32 5.31 6.55 7.84 9.61 2.6-1.83 5.12-3.7 7.62-5.63v-2.24c-2.17-3.27-4.43-6.7-6.86-10.25C332.97 368.45 330.16 370.54 327.18 372.57M315.04 380.35v2.24c2.48 3.54 4.8 6.92 7.13 10.08 2.7-1.61 5.4-3.27 8.05-5.04v-2.24c-1.96-3.43-4-6.98-6.17-10.67C321.15 376.66 318.11 378.52 315.04 380.35M302.34 387.27v2.24c2.11 3.64 4.27 7.22 6.27 10.56 2.87-1.45 5.68-2.91 8.42-4.44v-2.24c-1.67-3.55-3.46-7.24-5.34-11.1C308.61 383.99 305.47 385.67 302.34 387.27M289.01 393.22v2.24c1.84 3.8 3.67 7.5 5.46 10.98 2.96-1.17 5.88-2.46 8.75-3.8v-2.24c-1.42-3.64-2.87-7.5-4.49-11.46C295.54 390.43 292.3 391.88 289.01 393.22M408.83 189.5c0.49 3.49 0.88 6.98 1.2 10.51 4.26-0.64 8.36-1.29 12.25-1.92v-2.24c-0.32-3.12-0.65-6.29-1.08-9.33 -3.89 0.21-8.04 0.43-12.37 0.74V189.5zM408.83 240.81c-0.05 0.67 0 1.57 0 2.24 4.33 0.32 8.49 0.59 12.37 0.75 0.43-3.06 0.75-6.16 1.08-9.34v-2.24c-3.89-0.63-7.99-1.21-12.25-1.86C409.71 233.89 409.32 237.36 408.83 240.81M422.71 201.74c-3.95-0.11-8.1-0.15-12.42-0.15v2.24c0.22 3.48 0.37 7.01 0.37 10.55 4.32-0.32 8.49-0.69 12.38-1.01v-2.24C422.99 207.95 422.87 204.84 422.71 201.74M410.29 226.5c-0.02 0.67 0 1.57 0 2.24 4.32 0 8.47-0.06 12.42-0.11 0.15-3.1 0.28-6.27 0.33-9.44v-2.24c-3.89-0.32-8.05-0.69-12.36-0.95C410.68 219.52 410.51 223.01 410.29 226.5M21.97 200.17c0.28-3.53 0.71-7.01 1.2-10.5v-2.24c-4.33-0.32-8.49-0.54-12.44-0.69 -0.37 3.1-0.74 6.21-1.02 9.37 -0.03 0.67 0 1.57 0 2.24C13.61 198.94 17.71 199.58 21.97 200.17M23.17 241.02c-0.49-3.49-0.88-6.96-1.14-10.51 -4.28 0.65-8.36 1.35-12.27 1.98v2.24c0.28 3.17 0.65 6.29 1.08 9.39 3.9-0.23 8.06-0.54 12.33-0.86V241.02zM30.5 157.51c0.44-1.36 0.9-2.7 1.37-4.04 0.16-0.47 0.32-0.94 0.49-1.41 0.55-1.52 1.11-3.02 1.7-4.52v-2.24c-4.15-1.27-8.15-2.46-11.93-3.53 -0.51 1.41-1.03 2.82-1.53 4.24 -0.14 0.4-0.27 0.8-0.41 1.2 -0.32 0.91-0.64 1.83-0.95 2.74 -0.08 0.24-0.16 0.48-0.24 0.72 -0.11 0.66 0 1.57 0 2.24C22.63 154.41 26.51 155.96 30.5 157.51M26.57 171.56c0.8-3.44 1.73-6.82 2.75-10.19v-2.24c-4.21-0.91-8.25-1.77-12.14-2.58 -0.86 3.06-1.68 6.12-2.42 9.18 -0.08 0.67 0 1.57 0 2.24C18.47 169.15 22.47 170.32 26.57 171.56M23.76 185.6c0.54-3.49 1.19-6.92 1.94-10.35v-2.24c-4.21-0.65-8.38-1.23-12.25-1.71 -0.66 3.05-1.25 6.15-1.79 9.27 -0.06 0.67 0 1.57 0 2.24C15.49 183.72 19.55 184.69 23.76 185.6M21.71 226.6c-0.22-3.49-0.39-7.02-0.39-10.56 -4.26 0.32-8.41 0.69-12.36 1.01v2.24c0.05 3.21 0.17 6.38 0.37 9.48 3.95 0.06 8.05 0.06 12.37 0.06V226.6zM21.32 214.48c0-3.53 0.17-7.02 0.39-10.56v-2.24c-4.32 0.06-8.48 0.12-12.42 0.21 -0.16 3.11-0.28 6.27-0.32 9.44 -0.01 0.67 0 1.57 0 2.24C12.91 213.89 17 214.21 21.32 214.48M157.84 411.28c-0.07 0.67 0 1.57 0 2.24 3.02 0.91 6.11 1.72 9.18 2.46 1.19-3.69 2.48-7.66 3.74-11.73v-2.24c-3.46-0.81-6.87-1.72-10.26-2.73C159.56 403.45 158.65 407.46 157.84 411.28M203.43 409.12c0 4.29 0.05 8.41 0.16 12.28 3.13 0.2 6.32 0.32 9.5 0.37 0.33-3.92 0.65-8.04 0.97-12.28v-2.24c-3.56 0-7.08-0.15-10.63-0.37V409.12zM232.57 406.56v2.24c0.65 4.23 1.36 8.31 2 12.17 3.18-0.28 6.33-0.66 9.44-1.07v-2.24c-0.22-3.85-0.52-7.99-0.85-12.28C239.65 405.87 236.15 406.3 232.57 406.56M218.01 409.49c0.31 4.24 0.7 8.36 1.06 12.28 3.2-0.04 6.39-0.17 9.5-0.37 0.06-3.92 0.06-8.05 0.06-12.28v-2.24c-3.5 0.22-7.08 0.37-10.63 0.37V409.49zM172.85 415.07c-0.05 0.67 0 1.57 0 2.24 3.09 0.64 6.22 1.24 9.35 1.72 0.91-3.75 1.88-7.77 2.85-11.94v-2.24c-3.5-0.6-7.02-1.24-10.41-2C173.94 407.1 173.4 411.23 172.85 415.07M247 404.85v2.24c0.98 4.12 1.88 8.15 2.86 11.94 3.13-0.54 6.26-1.08 9.35-1.77v-2.24c-0.54-3.85-1.08-7.93-1.73-12.17C254.02 403.61 250.5 404.25 247 404.85M275.29 398.09v2.24c1.56 3.97 3.13 7.82 4.64 11.42 3.02-0.97 6-1.98 8.97-3.12v-2.24c-1.08-3.75-2.27-7.7-3.56-11.77C282.04 395.89 278.7 397.01 275.29 398.09M261.25 402.01v2.24c1.23 4.07 2.48 8.04 3.72 11.73 3.08-0.74 6.17-1.56 9.19-2.46v-2.24c-0.82-3.81-1.68-7.82-2.65-12.01C268.1 400.29 264.71 401.19 261.25 402.01M144.02 120.17l36.38 11.56v7.84c-0.2 0.23-0.67 0.28-0.78 0.28l-35.59-11.24V120.17zM290.43 120.17v7.27c0.03 1.09-1.32 1.37-2.36 1.63 -3.32 0.88-6.8 2.3-10.1 3.38 -1.9 0.63-4.07 1.2-6.11 1.86 -1.76 0.54-3.63 1.3-5.57 1.98 -3.96 1.4-8.2 2.51-12.56 3.88v-8.1L290.43 120.17zM238.09 128.2h-4.16v1.71c0.12 0.01 0.38-0.01 3.64-0.05v1.38h-3.6v2.29h4.13v1.38h-5.81v-8.09h5.81V128.2zM230.78 134.9h-1.6v-5.17c-0.45 1.63-0.97 3.38-1.74 5.19h-1.42c-0.59-1.83-1.1-3.56-1.67-5.19 -0.02 0.12 0.03 0.35 0.13 5h-1.61v-7.93h2.15c0.75 1.81 1.1 3.55 1.66 5.19 0.87-1.16 1.04-3.67 1.98-5.19h2.13V134.9zM221.19 134.74h-1.63v-7.92h1.64V134.74zM218.73 128.12h-2.34v6.62h-1.75v-6.57c-0.1-0.02-0.38 0-2.43 0.04v-1.38h6.52V128.12zM206.53 134.75h-1.6c-1.11-1.79-2.14-3.52-3.25-5.19 -0.02 0.12 0.02 0.34 0.13 5.18h-1.8v-7.93h1.78c1.11 1.61 2.15 3.35 3.07 4.84 0.03-0.12-0.01-0.34-0.15-4.82h1.82V134.75zM198.16 134.74h-1.63v-7.92h1.63V134.74zM181.35 138.75h71.23V123.34h-71.23V138.75zM144 133.59h0.83c0.43-0.02 21.27 6.57 31.82 10.31 1.11 0.4 0.63 1.95 0.85 3.06 0.19 1.07 0.98 2.05 1.5 3.31h-1c-0.43 0.05-19.55-6.32-29.04-9.8 -1.06-0.4-2.9-1.99-3.69-3.14 -0.53-0.76-1.3-2.6-1.28-3.03V133.59zM289.88 133.95c-0.17 2.97-1.75 6.14-4.57 7.21 -2.21 0.83-4.73 1.73-6.99 2.45 -7.63 2.39-15.34 4.77-23.2 7.33 0.36-1.24 1.87-2.79 1.88-4.1v-2.58L289.88 133.95z"/><polygon points="180.43 139.81 201.47 139.72 201.47 146.96 "/><polygon points="232.98 139.9 253.5 139.99 232.98 146.96 "/><path d="M148.84 141.44c0.43-0.02 4.27 1.66 6.35 2.35 7.14 2.42 14.31 4.63 21.46 7.09 0.81 0.28 0.65 1.36 0.85 1.99 0.25 0.91 0.99 2.18 2.22 3.39 0 0-0.09 0.31-0.52 0.31 -0.43 0-11.09-3.51-16.44-5.31 -1.43-0.47-2.94-1.07-4.54-1.63 -2.49-0.91-6.34-1.31-8.39-3.64 -0.88-0.98-1.88-2.47-1.8-4.56H148.84zM285.82 142.3c0 0 0.28 0.08 0.28 0.52 0 1.24-1.8 4.03-2.95 4.62 -0.78 0.4-1.74 0.82-2.56 1.16 -0.42 0.17-0.64 0.47-1.06 0.6 -8.31 2.66-16.74 5.3-25.31 7.86 0.33-0.89 1.14-1.37 1.67-2.13 0.68-0.99 0.93-2.23 1.35-3.3 5.26-1.66 10.66-3.47 15.9-5.1C277.31 145.22 281.51 143.87 285.82 142.3M178.63 144.76c9.16 3.43 19.93 3.59 19.93 13.57 0 0.43-0.34 2.36-0.34 2.79 0 1.08 5.33 2.28 5.59 2.31h3.27l-1.79 6.4h-2.88c-0.43 0.01-1.59-0.52-2.32-0.64 -6.43-1.22-12.74-10.03-13.11-15.9 -0.05-0.67-0.87-0.49-1.36-0.6 -1.05-0.22-2.29-0.76-3.29-1.05 -1.63-0.47-3.52-3.02-3.7-4.62V144.76zM255.82 144.73c0.27 0.43 0.28 0.87 0.28 1.3 0 5.19-4.81 6.12-8.65 7.44 -0.42 0.14-0.84 0.25-0.89 0.69 -1.04 9.21-10.78 16.7-18.1 15.81 -0.93-1.98-1.46-4.1-1.95-6.37h3.42c0.73-0.03 5.61-1.28 5.61-2.57 0-0.44-0.35-1.92-0.35-2.35C235.19 147.89 247.92 147.79 255.82 144.73"/><rect x="203.85" y="145.48" width="26.59" height="2.34"/><path d="M153.42 149.29h0.64c0.44-0.04 5.64 2.03 8.44 2.88 4.67 1.44 10.06 3.05 15.02 5.05 0.28 1.75 1.83 3.98 3.06 5.56l-0.83 0.09c-0.44 0-6.88-2.35-10.19-3.44 -4.01-1.34-8.68-2.29-12.88-4.31 -0.82-0.4-3.28-3.77-3.26-4.77V149.29zM116.86 150.14c2.26 0 6.13 0.82 8.05 2.41 0.82 0.67 2.2 0.29 3.23 0.41 2.97 0.38 6.15 0.71 9.25 1.41 1.44 0.3 2.42 3.26 3.52 3.73 4.35 1.93 9.22 2.85 14.04 4.3v0.61c0.02 0.56-2.06 5.07-3.02 5.69 -0.68 0.43-1.43 0.91-2.16 1.08 -5.18 1.22-10.63 2.32-16.16 3.53 -0.77-2.02-1.65-3.94-2.18-5.88 0-0.2 0.46-0.54 0.65-0.61 4.04-0.46 8.24-0.91 12.23-1.57 0.18-0.02 0.42-0.23 0.73-0.53 -0.01-0.1-0.12-0.14-0.24-0.26 -2.93-0.55-5.92-1.26-8.88-2.04 -0.58-0.67-1.62-2.69-2.93-2.72h-1.36v4.01l-3.68-1.88c0.94-0.84 1.99-1.54 2.98-2.24 -1.6-0.22-3.51-0.53-5.4-0.63 -0.72-0.05-1.93-0.63-2.37-0.63 -1.64 0-1.83 1.79-1.83 2.35 0 0.87 0.49 0.78 1.47 0.46 1.57 4.46 3.1 8.67 4.97 13.31 -1.85 0.61-4.98 1.31-5.41 1.29h-1.31c-1.43-4.08-3.46-8.4-4.3-12.49 -0.07-0.33-0.12-0.56-0.56-0.56 -0.44 0-1.65 0.18-3.37 0.27 0.29-0.67 0.23-1.14 0.19-1.27 -0.08-0.33-0.04-2.43-0.18-2.8 0 0-0.05 0.05-0.05-0.39 0-1.35 1.33-8.32 2.13-8.15C115.59 150.5 116.43 150.14 116.86 150.14M280.15 150.35h0.71v0.81c0.02 2.53-5.37 5.8-6.58 6.06 -3.89 0.84-7.87 2.11-11.66 3.24 -2.61 0.77-7.82 2.58-8.27 2.58l-0.84-0.1c0.45-0.91 2.49-2.47 2.9-3.45 0.22-0.5 0.41-1.21 0.67-1.94C264.77 155.2 272.45 152.75 280.15 150.35M178.54 151.56c2.46 0.85 4.9 1.56 7.41 2.33 0.56 1.59 0.91 3.16 1.44 4.83 -0.22 0.26-0.16 0.32-0.59 0.32 -0.45 0-1.4-0.43-1.92-0.67 -1.04-0.49-2.72-0.69-4.06-1.89 -0.04-0.05-2.33-3.07-2.28-3.7V151.56zM255.69 152.08c0.23 4.32-5.83 6.48-8.63 7.13l-0.7-0.12c0.59-1.42 0.85-2.95 1.3-4.37C250.3 153.64 252.91 152.94 255.69 152.08M192.79 166.6l-0.83 0.11c-0.43 0-2.87-1.08-4.25-1.48 -1.02-0.28-2.29-0.76-3.31-1.04 -2.5-0.68-5.25-4.42-5.47-6.69 3.29 1.02 6.27 1.89 9.23 2.84C189.02 162.6 190.95 163.97 192.79 166.6M159.71 157.48c6.47 2.05 13.38 4.21 19.89 5.99 0.28 0.54 0.38 1.28 0.83 1.9 0.91 1.28 2.21 2.43 3.3 3.67l-1.02 0.11c-0.44 0-5.12-1.66-7.57-2.41 -3.91-1.17-8.4-1.79-12.36-3.95 -0.54-0.28-3.1-3.67-3.06-4.61V157.48zM255.41 158.42c0 3.33-6.61 6.47-8.18 6.57 -2.01 0.13-3.97 1.18-6.09 1.62 1.6-1.95 3.14-3.85 4.42-5.77C249.32 160.06 255.41 157.97 255.41 158.42M273.98 158.51c0.39 0.77-0.81 3.15-1.59 3.89 -0.69 0.67-1.72 1.34-2.59 1.77 -0.5 0.24-1.06 0.56-1.6 0.73 -5.54 1.55-11.34 3.02-17.28 4.52 0.53-0.9 1.66-1.73 2.39-2.65 0.64-0.81 1.09-1.89 1.66-2.94C261.31 162.17 267.57 160.43 273.98 158.51M193.66 167.87c-0.39 0.65-4.07 1.97-5.21 1.97 -3.31 0-6.55-2.65-6.91-5.7L193.66 167.87zM252.07 164.43l0.88 0.09c-1.45 4.08-3.97 5.48-6.87 5.48 -1.69 0-4.03-0.5-5.66-2.13L252.07 164.43zM195.02 168.11v0.83c0.05 0.43-0.61 1.64-0.78 2.33 -0.66 2.49-3.15 4.14-4.85 4.14 -1.7 0-4.91-2.6-4.94-4.44l0.67-0.38C188.4 170.94 191.78 170.94 195.02 168.11M239.51 168.62c1.89 0.91 4.18 2.62 6.05 2.62 1.51 0 3.08-0.47 4.22-0.83 -0.4 2.54-3 5.54-5.44 5.54 -0.43 0-1.19-0.12-1.7-0.24 -0.69-0.2-1.64-1.04-1.98-1.78 -0.7-1.5-1.47-4.35-1.47-4.78C239.19 168.71 239.24 168.84 239.51 168.62M196.03 168.82c0.54 0.03 3.93 1.04 3.93 1.89 0 0.44-1.36 3.94-2.16 5.83 -0.23 0.52-1.07 1.32-1.6 1.59 -0.49 0.24-1.22 0.42-1.64 0.42 -1.72 0-3.02-1.18-4.52-2.87C193.71 176.25 195.01 171.52 196.03 168.82M238.04 168.81c0.63 0.99 1.26 7.49 4.39 7.49 0.43 0 0.78-0.35 1.24-0.31 0.15 1.41-2.79 2.74-3.77 2.74 -4.77 0-4.54-4.23-5.91-8.45C235.31 169.85 236.71 169.15 238.04 168.81M201.13 170.36c0.46 0.19 0.67 0.34 1.12 0.35h2.32c0.22 0.22 0.27 0.26 0.27 0.69 0 0.45-1.32 4.45-1.99 6.51 -0.18 0.55-0.69 1.11-1.09 1.57 -0.4 0.5-1.71 1-2.51 1 -1.09 0-2.75-0.56-4.17-1.8C199.77 178.95 199.18 172.9 201.13 170.36M233.01 170.56c1.97 4.15 0.81 8.17 4.81 8.17l0.84 0.12c-0.97 1.35-2.41 2.16-3.73 2.16 -5.05 0-5.09-6.42-6.34-9.21V171.1C230.1 170.89 231.51 170.7 233.01 170.56M144.93 171.96c0.26 0.81 0.42 1.64 0.66 2.25 0.38-0.33 1.17-0.71 1.61-0.71 1.28 0 1.84 1.05 1.84 1.75 0 0.96-1.04 1.91-1.75 1.91 -0.44 0-0.95-0.19-1.15-0.36 -0.07 0.59 0.11 1.24 0.06 2.57l-23.72 5.47c-0.25-0.21-0.44-0.59-0.58-0.79 -0.41-2.13-1.29-5.92-1.29-6.35 0-0.96 2.17-1.07 2.43-1.04L144.93 171.96zM152.69 174.02c1.23 0 1.92 1.01 1.92 1.84 0 1.32-1.59 2-2.01 2 -0.91 0-1.66-1.44-1.66-1.92C150.95 175 151.54 174.02 152.69 174.02M220.48 175.72h-7.21v-1.13h7.21V175.72zM213.79 172.86h6.17c0.06 0.29 0.23 0.65 0.17 1.11h-6.53C213.56 173.68 213.73 173.33 213.79 172.86M214.31 171.11h5.14c0.04 0.3 0.21 0.48 0.16 1.12h-5.48C214.08 171.58 214.25 171.41 214.31 171.11M214.98 168.72c0.32-1.54 0.67-3.1 1.09-4.59h1.79c0.41 1.49 0.76 2.88 1.07 4.59H214.98zM219.08 169.37c0.05 0.29 0.23 0.47 0.17 1.12h-4.6c-0.04-0.66 0.13-0.83 0.18-1.12H219.08zM219.8 154.91c-0.67 2.77-1.19 5.04-1.77 7.22h-1.79l-1.76-7.22H219.8zM225.25 164.08l4.16-14.44v-0.84h-25.05l4.5 13.89 -5.03 17.75v0.86h26.1v-1.02L225.25 164.08zM157.58 176.47c1.04 0 1.92 1.39 1.92 2.09 0 1.18-1.46 1.75-1.92 1.75 -1.16 0-1.75-1.01-1.75-1.83C155.83 177.54 156.53 176.47 157.58 176.47M275.39 176.81c1.17 0 1.66 1.44 1.66 2.01 0 1.11-1.01 1.83-1.83 1.83 -0.78 0-1.83-1.05-1.83-1.75C273.38 177.87 274.46 176.81 275.39 176.81M161.76 180.83c0.99 0 1.74 0.98 1.74 1.92 0 0.94-0.99 1.91-1.83 1.91 -1.12 0-1.83-1.41-1.83-2.01C159.84 181.82 160.85 180.83 161.76 180.83M271.63 181.18c1.16 0 1.74 1 1.74 1.91 0 1.42-1 1.92-1.83 1.92 -1.37 0-1.65-1.44-1.65-1.92C269.9 182.18 270.48 181.18 271.63 181.18"/><rect x="203.5" y="182.09" width="26.58" height="2.36"/><path d="M214.53 186.23c0.43 0 0.64 0.01 0.89 0.08 0.91 1.76 1.62 3.5 2.51 5.36 -0.22 0.27-0.46 0.49-0.89 0.48h-3.21c-0.92-1.64-1.81-3.22-2.65-4.83v-1.05C212.2 186.78 213.84 186.23 214.53 186.23M219.99 186.27c0.44-0.03 0.9 0.14 1.51 0.22 0.59 1.61 1.11 3.34 1.8 5.12v0.67c0 0-0.08 0.24-0.5 0.24 -0.44 0-2.27-0.35-3.59-0.37 -0.76-1.84-1.45-3.59-2.13-5.88H219.99zM223.1 186.62c1.48 0.14 2.7 0.49 4 0.75 0.57 1.96 0.93 3.89 1.24 5.99h-0.81c-0.43 0.04-1.78-0.49-2.72-0.6 -0.76-1.57-1.3-3.34-1.7-5.11V186.62zM209.43 186.76c1.13 1.64 2 3.38 3.08 5.07 -0.46 0.48-2.87 1.03-3.48 1.03 -1.16 0-3-3.95-3.82-5.12C206.53 187.29 207.94 187.11 209.43 186.76M228.4 187.65h0.65c0.45-0.02 2.1 0.39 3.07 0.91 1.31 0.69 1.66 1.81 1.66 2.81 0 1.57-1.66 2.88-2.69 2.88 -0.44 0-1.05-0.2-1.58-0.48 -0.42-1.57-1.14-4.47-1.11-4.91V187.65zM203.87 188.16c1.1 1.45 2.33 3.04 3.41 4.75 -0.8 0.46-2.2 0.99-2.64 0.99h-2.56c-0.86 0-1.6-1.76-1.6-2.35C200.47 190.07 201.89 188.2 203.87 188.16M196.04 206.28c1.56 0 2.18 2.19 2.18 2.53 0 1.57-1.52 2.18-2.27 2.18 -1.22 0-1.25-0.13-2.18-1.37 -0.44-0.02-1.18-0.02-2-0.32 0.39-0.53 1.24-0.69 1.81-1.12C194.38 207.55 195.24 206.28 196.04 206.28M228.9 206.28c1.18 0 2.1 1.34 2.1 2.27 0 1.16-0.92 2.44-2.1 2.44 -0.95 0-1.51-0.9-2.16-1.18 -0.81-0.35-1.92-0.22-2.73-0.75 0.83-0.33 1.73-0.41 2.38-0.73 0.38-0.19 0.43-0.81 0.68-1.11C227.51 206.68 228.47 206.28 228.9 206.28M207.18 210.49c0.1 0.68-0.62 1.63-0.94 2.23 0.13 0.08 0 0.03 0.44 0.03 1.01 0 3.16-1.09 4.23-1.51 -0.52 0.91-1.41 1.98-2.23 2.74 0.62 0.69 2.05 0.42 2.78 1.08 -2.94 0.46-5.63 1.19-8.47 2.49 -0.29 0.13-1.46-0.09-1.46 0.34 0 0.45 0.62 1.16 1.22 1.64 -0.22 0.32-0.52 0.36-0.96 0.36 -0.54 0-1.45-0.19-2-0.87 -0.22 0.3-0.82 0.69-1.38 0.87l-1.58-0.32c0.87-0.64 1.3-1.07 1.57-1.71 -0.45-0.27-1.11-0.53-1.79-0.65 -1.05-0.2-1.88-1.98-1.88-2.9 0-2.26 2.23-3.14 3.83-3.14 0.43 0 4.01 0.7 4.44 0.7C204.54 211.87 205.89 211.36 207.18 210.49M240.15 210.49c-0.02 1.16-1.55 2.5-2.18 3.12 0.13 0.06-0.17 0.01 0.27 0.01 1.37 0 4.52-1.7 5.45-1.85 -0.5 1.07-1.4 2.15-2.23 2.87 0.79 0.4 1.86 0.58 2.61 1.3 -3.77-0.13-6.85 1.82-10.35 2.18 0 0-0.11-0.24-0.11 0.21 0 0.43 0.97 0.89 1.57 1.37 -0.22 0.32-0.6 0.54-1.05 0.54 -0.42 0-1.82-0.86-2.26-0.86 -0.42 0-0.79 0.69-1.24 0.67h-1.32c-0.05-0.33-0.17-0.2-0.39-0.54 0.64-0.31 1.24-0.75 1.58-1.23v-0.39c-0.99-0.18-3.69-1.39-3.69-3.22 0-1.97 1.94-3.14 3.66-3.14 0.44 0 4.1 0.7 4.54 0.7C236.16 212.22 238.81 211.47 240.15 210.49M226.81 221.81c1.35 1.27 2.94 2.86 4.19 4.55 -1.44 1.68-2.68 3.08-4.37 4.53 -1.51-1.45-4.17-3.92-4.17-4.37C222.46 226.09 225.3 223.25 226.81 221.81M207.71 221.98c0.43 0 4.09 4.01 4.09 4.44 0 0.45-2.84 3.18-4.35 4.46 -1.87-1.62-4.18-3.93-4.18-4.37C203.27 226.09 207.28 221.98 207.71 221.98M217.13 221.98c0.44 0 3.01 2.85 4.28 4.36 -1.27 1.51-2.85 3.08-4.35 4.54 -1.69-1.44-3.1-3.01-4.37-4.36C214.13 224.83 216.7 221.98 217.13 221.98M261.77 225.3c0.81 0 1.84 1.07 1.84 1.65 0 1.52-1.42 2-2.01 2 -1.19 0-1.65-1.48-1.65-1.83C259.95 225.84 260.98 225.3 261.77 225.3M172.57 225.82c0.95 0 1.92 1.01 1.92 1.83 0 1.12-0.99 1.84-1.84 1.84 -1.26 0-1.82-1.03-1.82-1.75C170.83 227.28 171.42 225.82 172.57 225.82M172.75 231.23c0.98 0 1.74 1.1 1.74 1.91 0 0.91-1.04 1.92-1.74 1.92 -0.91 0-1.91-1.03-1.91-1.83C170.84 232.21 171.83 231.23 172.75 231.23M261.6 231.57c1.12 0 1.84 1.01 1.84 1.84 0 0.94-1.05 1.83-1.75 1.83 -1.26 0-1.91-1-1.91-1.83C259.77 232.12 260.82 231.57 261.6 231.57M207.46 231.75c1.51 1.45 3.1 3.04 4.35 4.72l-4.53 4.52c-1.51-1.44-2.74-2.85-4.36-4.71L207.46 231.75zM216.85 231.75c0.64 0.39 1.26 0.71 1.66 1.15 1 1.11 2.9 2.95 2.9 3.39 0 0.45-2.85 3.27-4.35 4.71l-4.54-4.35C213.95 234.78 215.69 233.04 216.85 231.75M226.28 231.75c1.52 1.08 4.55 4.1 4.55 4.53 0 0.45-2.67 3.09-4.37 4.54l-4.35-4.35C223.36 234.78 224.77 233.38 226.28 231.75M236.23 231.75l4.36 4.53 -4.16 4.54c-0.84-0.39-4.57-3.75-4.57-4.27C231.87 236.11 234.54 233.38 236.23 231.75M197.68 231.92c1.52 1.27 2.93 2.85 4.37 4.54l-4.36 4.36c-1.7-1.61-4.19-4.01-4.19-4.44C193.51 235.93 196.17 233.38 197.68 231.92M172.75 237.33c1.16 0 1.74 1 1.74 1.83 0 1.27-1.04 1.83-1.74 1.83 -1.14 0-1.74-1.01-1.74-1.83C171.01 238.33 171.6 237.33 172.75 237.33M261.6 238.2c1.12 0 1.84 1.13 1.84 1.83 0 1.29-1.47 1.84-1.84 1.84 -1.13 0-1.83-1.01-1.83-1.93C259.77 238.79 260.82 238.2 261.6 238.2M226.48 241.52c1.35 1.45 4.18 4.18 4.18 4.62 0 0.45-4.13 4.51-4.38 4.61l-4.35-4.35C223.18 244.72 224.78 243.14 226.48 241.52M197.51 241.68c1.7 1.44 4.37 4.02 4.37 4.45 0 0.83-4.34 4.62-4.46 4.62 -0.43 0-3.01-2.85-4.27-4.53L197.51 241.68zM235.88 241.68c1.52 1.27 4.37 4.02 4.37 4.45 0 0.43-2.84 3.35-4.17 4.62 -1.7-1.25-2.93-2.66-4.55-4.35C232.78 244.72 234.54 242.96 235.88 241.68M207.11 241.87c0.44 0 4.35 4.18 4.35 4.62 0 0.43-2.66 3-4.35 4.44 -1.52-1.44-3.1-3.02-4.36-4.52C204.01 244.72 206.67 241.87 207.11 241.87M173.01 243.61c1.33 0 1.66 1.49 1.66 1.83 0 1.05-1 2.02-1.92 2.02 -0.86 0-1.74-1.42-1.74-2.02C171.01 244.26 172.43 243.61 173.01 243.61M261.43 244.48c0.83 0 1.83 1 1.83 1.91 0 0.96-1.35 1.92-1.83 1.92 -1.28 0-1.83-1.42-1.83-2C259.6 245.33 260.6 244.48 261.43 244.48M211.72 251.98c1.58 0 2.18 1.76 2.18 2.34 0 1.53-1.76 2.37-2.35 2.37 -0.43 0-1.41-0.74-2.06-1.23l-2.38-0.14c0.79-0.54 1.84-0.64 2.22-1.34C210.18 252.37 210.59 251.98 211.72 251.98M223.26 255.51c-0.11 0.7-0.47 1.43-0.8 2.02 0.12 0.08 0 0.04 0.42 0.04 1.13 0 2.97-1.12 3.89-1.35 -0.31 1.06-1.04 1.98-1.71 2.7 0.74 0.28 2.42 0.16 3.32 1.32 -1.72 0.29-3.3 0.56-4.82 1.02 -1.93 0.57-5.98 1.71-5.98 2.15s0.82 1.18 1.39 1.9c-0.33 0.11-0.6 0.28-1.03 0.28 -0.44 0-1.31-0.68-1.75-0.68 -0.44 0-0.81 0.51-1.25 0.51l-1.53-0.09c0.37-0.7 0.9-1.23 1.39-1.82 -0.54-0.71-1.65-0.43-2.37-0.97 -0.72-0.55-1.46-1.35-1.46-2.34 0-2.91 2.06-3.83 4.27-3.83 0.43 0 3.32 0.69 3.75 0.69C220.37 257.04 221.7 256.25 223.26 255.51M309.16 301.16L258.75 269.68c-0.02-0.91 2.12-1.65 2.51-1.65 1.24 0 12.65 7.35 14.41 8.44 5.69 3.51 11.61 7.45 17.33 11.05 1.72 1.09 3.68 2.33 5.58 3.48 3.48 2.14 7.31 4.26 10.58 6.75 0.42 0.31 0.65 1.41 0.65 1.84C309.82 300.03 309.62 300.56 309.16 301.16M254.26 286.59v-10.52l16.48 10.52H254.26zM249.12 297.84h-63.96c-0.44 0-2.52-0.74-3.57-1.48 -0.68-0.46-1.14-1.2-1.68-2.09h74.59C253.83 296.12 250.38 297.84 249.12 297.84M248.52 301.66h-63.27c-0.57-0.36-1.17-1.29-1.17-1.72 0-0.46 0.52-1.57 1.43-1.57h61.86c1.19 0 1.77 0.76 1.77 1.57C249.14 300.37 248.93 301.07 248.52 301.66M173.29 253.5c1.15-0.48 1.38-1.23 1.38-1.86 0-1.37-0.64-1.57-1.48-1.57 -1.4 0-1.65 0.65-1.65 1.57 0 0.61-0.25 0.75 1.03 1.72 -0.96 1.06-5.77 4.21-6.62 4.21 -0.43 0-2.71-0.53-3.14-0.53 -0.44 0-2.01 0.36-2.44 0.36 -1.19 0-5.34-2.2-6.08-2.53 0.4-3.55 0.68-4.1 0.68-6.28 0-6.59-1.71-12.26-8.21-18.57 1.12-1 2.2-1.72 3.39-2.25 0.27 0.63 0.6 1.29 0.85 1.75 7.57-2.27 15.5-4.32 23.26-6.87 2.18-0.73 4.89-3.33 5.65-5.7l0.33 20.39c0.76 7.87 3.55 16.94 9.66 24.35 1.1 1.33 2.02 2.89 3.23 3.95 7.48 6.42 15.82 12.55 23.57 18.8 2.33-1.89 4.87-3.9 7.25-5.85 8.13-6.74 17.33-11.87 22.8-21.93 0.93-1.72 1.89-3.83 2.79-5.61 1.03-2.03 1.69-4.41 2.26-6.59 0.68-2.66 1.05-5.81 1.52-8.69l0.31-18.98c3 6.8 9.82 6.79 14.57 8.41 4.63 1.57 9.6 2.92 14.38 4.49 0.45-0.48 0.91-1.41 1.35-1.41 0.82 0 2.53 2.02 2.53 2.1 0 0.43-2.81 2.8-4.18 4.48 -3.49 4.22-4.89 9.26-4.89 13.75 0 0.45 0.87 5.67 0.87 6.11 0 0.87-4.58 2.71-5.08 2.71h-4.83c-0.45 0-1.25 0.69-1.69 0.69 -0.43 0-3.48-1.94-5.09-2.84 0 0 0.01-0.18-0.21-0.52 1.42-0.22 1.56-0.97 1.56-1.86 0-1.16-0.65-1.75-1.48-1.75 -1.5 0-1.66 1.04-1.66 1.75 0 0.59-0.25 0.77 1.05 1.73l-13.64 16.99v14.72h-60.11v-15.23L173.29 253.5zM161.27 278.74c-12.59 7.65-25.23 15.25-38.1 22.76 -0.45-0.78-1-2.09-1-2.52 0-1.49 1.33-2.05 2.41-2.63 2.56-1.44 5.42-3.12 7.97-4.64 7.55-4.56 15.24-9.27 23.03-13.95 3.18-1.92 6.43-4.02 9.76-5.93 2.93-1.69 4.71-3.63 7.41-3.63 0.62 0 2.4 0.68 2.8 1.24C171.27 272.93 165.97 275.89 161.27 278.74M169.28 204.09l10.22-7.19h0.66v13.91C178.96 206.28 173.3 203.19 169.28 204.09M164.86 198.61c-0.81-1.3-1.16-2.54-1.69-3.89 6.44-3.47 13.06-6.52 19.97-9.64 0.46-0.2 1.29-0.23 1.74-0.23 1.39 0 1.83 1.42 1.83 2 0 1.29-1.4 1.84-2.1 1.84 -0.43 0-2.35-0.53-2.79-0.53C180.36 188.15 170.26 195.63 164.86 198.61M187.95 203.55h28.55v8.83c0.04 0.43-2.47 2.76-3.81 3.87 1.19 1.44 2.92 3.18 4.39 4.7 1.29-0.77 3.03-3.08 4.33-4.54 -1.18-1.29-3.84-3.72-3.81-4.17v-8.68h27.86v34.1c0.02 0.45-0.27 3.2-0.93 4.47 -0.73 1.36-2.4 2.65-3.41 3.76 0.49 0.58 1.57 1.57 1.57 2 0 0.43-2.29 4.53-3.64 6.7 -1.37-1.08-2.42-2.14-3.19-3.13 -1.62 1.52-2.99 2.89-4.34 4.52l3.32 3.68c-5.79 5.52-12.33 10.42-18.14 14.82l-18.14-14.8c0.91-1.17 2.14-2.41 3.14-3.35 -1.01-1.27-2.75-3-4.19-4.51 -0.93 0.83-1.96 1.87-3.14 2.97 -0.27-0.25-3.65-5.78-3.65-6.63 0-0.43 1.07-1.32 1.56-1.91 -1.18-1.29-2.52-2.36-3.25-3.58 -0.85-1.42-1.11-4.69-1.09-5.13V203.55zM249.57 184.66c2.18 0 18.06 8.22 21.18 9.72 -0.71 1.54-1.22 2.9-1.85 4.4 -4.86-3.33-10.06-7.01-14.97-10.43 -0.31-0.22-0.87-0.36-1.29-0.36 -0.44 0-2.97 1.05-3.41 1.05 -1.5 0-2.01-1.3-2.01-2.01C247.22 185.54 248.38 184.66 249.57 184.66M253.7 209.95v-12.7c3.42 1.61 6.48 4.3 9.73 6.68C260.3 203.23 255.13 206.21 253.7 209.95M135.35 251.82c1.5 0.59 1.65 1.73 1.65 2.68 0 3.27-3.15 8.77-3.15 9.42 0 0.97 8.78 3.94 12.39 5.47l-22.46 14.11h-0.7l-2.12-8.23C130.25 270.01 133.88 259.73 135.35 251.82M297.27 251.99c0.42 0.19 0.49 0.6 0.61 0.81 0.92 5.64 2 12.08 6.42 17.25 0.2 0.22 0.38 0.87 0.81 1.35 1.83 1.97 3.78 3.83 5.4 5.39l-2.02 7.45 -22.72-14.29c0.97-0.67 2.03-1.12 3.08-1.51 1.7-0.63 9.14-2.69 9.14-3.71 0-0.44-0.98-2.38-1.35-3.62 -0.5-1.72-1.1-5.19-1.1-5.62C295.52 254.61 295.55 252.88 297.27 251.99M346.18 238.09c-1.81-0.76-5.65-1.45-6.1-1.45 -3.04 0-9.16 2.46-10.41 5.93 -0.02-0.12-0.02-0.29-0.12-0.38 -0.92-5.2-3.32-10.76-6.39-15.54 -3-4.64-7.29-10-10.11-14.34 -1.44-2.22-4.31-6.02-5.62-9.21 -0.69-1.64-0.91-4.64-0.91-5.07 0-3.12 1.82-9.33 3.12-12.2l-6.68-1.49c-0.1 0-0.6 0.07-0.73 0.25 -2.25 3.65-3.74 9.46-3.74 13.35 0 2.95 0.65 6.76 2.33 9.68 1.01 1.72 2.36 3.61 3.39 5.24 2.52 4.1 5.95 8.98 9.18 13.37 3.2 4.36 6.99 9.22 8.76 13.8 2.61 6.74 3.17 19.38 13.81 20.27 0.32 0.03 0.54 0.25 0.98 0.25 2.92 0 8.98-4.01 8.98-8.2 0-3.24-2.84-6.1-6.1-6.1 -2.75 0-4.9 1.11-5.98 5.06 -0.18-0.3-0.13-0.52-0.13-0.96 0-2.89 2.49-5.84 5.84-5.84 3.5 0 7.59 2.81 7.59 7.58 0 5.25-5.1 10.03-10.11 10.03 -8.35 0-12.37-7.01-14.73-15.91 -0.53-2.05-1.84-3.92-2.8-5.62 -0.39-0.69-1.01-1.25-1.7-1.83 -1.82 4.47-3.62 11.51-3.62 16.38 0 6.43 1.53 13.47 9.42 18.88 -1.73 3.37-3.62 7.06-5.34 10.52 -0.7 1.4-1.42 2.8-2.09 4 -0.69 1.22-2.47 5.67-4.96 5.67 -0.43 0-0.62 0.01-1.18-0.09 1.09 0.94 2.12 1.62 2.94 2.19 -0.14 0.05-0.14 0.23-0.14 0.23 -0.49 0.32-1.09 0.65-1.52 0.65 -0.44 0-0.96 0.05-1.4-0.22 -14.13-8.24-25.16-15.65-38.94-24.29 -2.75-1.72-5.45-3.39-7.96-4.99 -0.45-0.3-0.61-1.19-0.61-1.62 0-0.12-0.02-1.66 0.79-1.66 0.43 0 3.29 2.07 5.06 3.12 -0.03-1.22 0.1-2.68 1.52-3.47h2.03c0.43 0.01 0.49 0.35 0.92 0.35h1.86c0.44 0 1.71-0.52 2.37-0.77 1.39-0.56 2.84-1.49 4.19-2.1 1.11-0.5 5.16-2.6 5.16-3.06 0-0.43-0.82-2.27-1-3.35 -0.32-1.52-0.74-4.08-0.74-4.51v-3.11c0-3.27 2.78-8.81 6.31-11.1 0.91-0.61 2.58-1.65 3.03-1.65 1.59 0 2.98 4.53 2.98 4.55 0.04 0.7 0.06 1.65 0.06 2.09 0 0.71-0.14 2.3-0.44 2.75 -5.95 1.24-8.1 5.72-8.1 9.89 0 1.25 1.4 6.47 1.4 6.54 0 0.54-7.04 3.16-8.26 3.6 -4.03 1.49-8.43 4.19-12.47 3.65 0.73 0.89 1.83 1.64 2.55 2.09 11.82 7.36 23.79 14.74 35.36 22.07 0.79 0.51 1.53 1.15 2.23 1.72 0.32-0.77 0.09-2.26 1.25-2.75 0.66-0.29 1.38-0.63 1.9-0.81 1.44-0.46 2.4-2.35 2.66-3.19 1.44-4.29 2.52-8.89 3.73-13.37 -1.13-0.6-1.98-1.34-2.92-1.95 -2.11-1.41-5.38-4.4-6.64-6.43 -1.24-1.99-2.38-4.91-2.94-6.94 -0.7-2.44-1.79-6.87-1.79-7.3v-3.49c-0.71-1.58-0.65-3.88-0.86-5.39 0-2.78-0.17-2.86-0.17-3.3 0-3.53-2.71-8.8-6.2-10.74 -5.14-2.88-13.86-7.85-13.86-14.21 0-0.6 0.75-1.58-0.19-2.78l-4.24 9.1c-2.33-0.54-4.98-1.28-7.36-2.23 -0.73-0.29-11.23-1.39-11.23-5.21 0-1.47 0.59-1.99 2.09-1.99 3.75 0-0.42 3.66 4.88 3.66l9.76 0.75c-1.14-0.89-2.26-5.96-2.26-7.72 0-1.32 0.84-4.13 0.98-4.92 1.98-11.15 15.45-10.04 20.45-19.74 -2.55-0.62-7.14-1.84-7.57-1.84 -0.43 0-0.34 0.06-0.34 0.06 -2.64 2.7-6.03 4.39-8.54 5.58 -1.09 0.53-2.71 1.86-3.15 1.86 -0.42 0-15.8-7.36-23.73-10.93 -0.96-0.43-2.77-0.58-3.21-0.58 -5.58 0-9.6 4.89-9.6 9.77 0 3.35 2.17 7.64 6.64 9.2h-57.92c3.4-2.23 5.24-5.41 5.24-8.76 0-4.75-3.66-9.68-9.25-9.68 -0.43 0-1.87 0-2.51 0.23 -8.25 3.23-24 10.58-24.43 10.58 -0.43 0-1.82-1.35-2.85-2.02 -2.68-1.75-6-2.19-8.69-5.3 -2.53 0.34-5.17 0.87-7.73 1.66 1.17 2.31 2.8 4.51 4.95 5.9 1.64 1.08 3.44 2.18 5.08 2.99 8.48 4.22 10.19 9.69 10.19 15.77 0 2.71-0.34 4.28-2.43 7.4l2.95 0.28 8.21-0.7c4.09 0.06 0.49-3.32 4.17-3.32 1.01 0 1.75 0.99 1.75 1.92 0 2.64-3.79 2.7-4.77 3.03 -2.44 0.82-4.91 1.48-7.3 2.09 -2.27 0.59-4.54 1.52-6.68 2.06 -1.5-3.06-3.07-6.2-4.83-9.43 -0.13 0.34 0.04 0.52 0.04 2.42 -0.35 1.56-0.68 3.13-1.16 4.5 -0.53 1.46-1.41 3.2-2.62 4.41 -5.66 5.46-16.22 7.33-17.05 15.51 -0.11 1.2-0.28 2.44-0.43 3.56 0.2 0.24 0.15 0.27-0.02 1.66 -0.39 6.05-0.83 12.37-4.05 18.07 -1.2 2.13-2.78 4.27-4.45 6.01 -2.32 2.41-7.03 6.12-7.03 6.55 0 0.61 3.41 12.47 4.42 14.8 0.23 0.52 0.9 1.14 1.23 1.4 1.31 1.03 2.9 0.8 2.9 2.64 0 0.44-0.36 0.96-0.26 1.46 13.6-8.03 26.75-15.96 39.94-23.96 0.57-0.34 1.11-0.72 1.27-1.4 -0.67-0.07-1.16-0.02-1.47-0.13 -6.13-2.32-12.21-4.82-18.12-7.14 -0.16-0.1-0.31-0.26-0.43-0.35 0.51-1.51 1.92-5.06 1.92-7.02 0-4.01-3.28-9.15-8.97-11.06 -0.53-0.18-0.1-1.23-0.1-1.66 0-0.45 0.14-2 0.22-2.87 0-0.26 2.65-3.84 3.88-3.84 1.57 0 5.99 5.42 6.49 6.35 0.88 1.66 1.59 3.42 1.9 5.02 0.19 1.02 0.23 2.67 0.23 3.11 0 2.99-0.48 6.46-1.73 9.83 3.92 2.18 7.68 4.33 11.43 5.96 0.64 0.27 1.76-0.09 2.18-0.09h2.58c0.73 0 1.41 1.07 1.41 1.66 0 0.43-0.48 1.52-1.01 2.27 3.01-1.34 7.46-4.46 7.9-4.46 0.64 0 0.79 1.03 0.79 1.84 0 0.53-0.02 1.31-0.79 1.79 -12.69 7.78-25.47 15.57-38.14 23.12 -1.61 0.97-3.56 2.04-5.28 3.15 -1.22 0.78-4.7 3.42-6.36 3.42 -0.44 0-1.37-0.29-1.86-0.47 -0.35-0.13-0.77-0.63-0.94-1.04 0.63-0.45 1.55-1 2.09-1.84 -1.14-0.64-2.52-1.29-3.11-2.32 -2.73-4.72-4.7-9.8-6.91-14.46 -0.56-1.24-1.84-3.33-1.84-3.76 0-0.43 0.45-0.58 0.62-0.68 4.31-2.81 8.81-9.05 8.81-13.1 0-2.27 0.63-3.02-0.18-9.27 -0.5-3.89-1.53-7.69-2.69-11.55 -0.12-0.19-0.47-0.27-0.47-0.27 -7.27 9.03-6.82 21.8-19.07 21.8 -4.31 0-10.38-3.34-10.38-9.33 0-3.36 2.63-7.58 7.06-7.58 2.44 0 6.53 1.37 6.53 5.84 0 0.43 0.05 0.87-0.13 1.31 -0.56-3.43-3.1-5.75-6.06-5.75 -3.11 0-6.01 3.2-6.01 6.45 0 2.48 2.6 5.77 5.52 6.83 1.08 0.38 2.77 1.01 3.2 1.01 2.65 0 7.1-1.52 8.81-3.98 5.77-8.32 5.51-17.55 12.3-25.9 5.5-6.76 12.12-13.79 15.43-20.26 2.19-4.31 3.23-8.14 3.23-12.37 0-4.11-0.89-8.13-3.41-12.46 -2.38 0.52-4.65 0.86-6.86 1.47 1.03 4.34 2.6 7.44 2.6 10.73 0 2.16-0.57 6.04-1.62 7.93 -6.51 11.81-19.77 23.84-21.81 35.62 -0.13 0.81-0.6 1.68-0.97 2.31 -2.02-4.51-6.51-6.81-10.39-6.81 -8.94 0-15.25 7.96-15.25 15.87 0 9.29 8.73 16.57 19.17 16.57 3.49 0 1.54 0.34 6.5-1.12 0.41-0.1 0.52-0.53 0.72-0.59 5.09-2.19 7.36-8.19 8.33-11.8 0.11-0.15 0.14-0.42 0.26-0.48v0.74c-1.25 5.8-5.64 12.99-12.4 15.95 -0.2 0.14-0.26 0.54-0.26 0.54l9.94 20.8c-0.98 0.6-2.2 1.48-3.15 2.29l14.54 17.46 58.78-35.59v10.38h-16.62c6.3 8.06 12.23 15.9 18.04 23.27h71.14c6.33-7.55 12.97-15.56 18.78-22.65l39.77 24.59 13.92-16.95c-1.12-0.81-2.14-1.32-2.78-1.91l10.29-20.43c0-0.13-0.25-0.62-0.43-0.75 -3.85-2.17-7.2-4.25-9.09-7.96 -0.2-0.42-0.95-1.1-0.95-1.53s-1.57-5.67-1.57-6.1 -0.05-0.4-0.05-0.53c0.56 3.46 2.31 7.56 5.92 10.2 1.5 1.09 3.05 2.24 4.53 2.81 2.15 0.85 4.67 1.47 6.78 1.47 9.48 0 17.52-8.19 17.52-17.95C354.98 247.16 351.72 240.44 346.18 238.09M317.32 151.18c4.54 0 3.81 4.36 4.18 7.65 0.35 3.12 0 3.49 0.16 4.96 -0.21 0.25-0.34 0.3-0.77 0.3 -0.44 0-1.5-0.16-2.78-0.38 -1.31 4.11-2 8.23-4.37 12.15 -0.12 0.18-0.61 0.26-0.8 0.26l-6.07-1.31c1.56-4.5 3.13-8.68 4.57-12.73 1.65-0.2 1.51 0.46 1.51-0.96 0-0.91 0.12-1.91-1.05-1.91 -0.43 0-6.23 0.69-8.2 0.91 0.65 0.34 1.66 1.02 2.8 1.64 -0.61 1.27-2.19 1.78-3.5 2.5 -0.28-0.22-0.33-0.69-0.31-3.95 -0.13-0.11 0.17-0.05-0.27-0.05 -1.7 0-2.47 0.71-3.83 2.86 -3.02 0.8-6.17 1.49-9.2 2.13 0.03 0.06 0.3 0.09 0.44 0.19 4.15 0.75 8.33 1.44 12.57 1.99 0.23 0.2 0.27 0.23 0.27 0.67 0 1.16-1.53 3.96-2.01 5.22 -5.86-1.21-11.9-2.23-17.74-3.89 -0.85-0.23-2.91-4.39-2.89-5.31v-1.18c4.63-1.44 9.41-2.46 13.86-4.3 0.61-0.23 0.73-1.16 1.18-1.79 0.4-0.56 0.98-1.04 1.58-1.39 0.62-0.35 1.75-0.41 2.18-0.41 0.44 0 1.57-0.07 4.17-0.35 2.09-0.22 4.25-0.21 6.24-0.76 1.19-0.33 2.01-1.9 3.14-2.26C313.88 151.15 316.88 151.18 317.32 151.18M289.85 172.11l23.07 4.95c0.03 0.28 0.21 0.11 0.21 0.55 0 0.43-0.41 1.7-0.66 2.58 -0.43 1.35-0.28 4-1.58 4.83l-23.01-5.12c-0.04-0.29-0.22-0.2-0.22-0.63s0.19-1.1 0.26-1.53v-0.21c-0.3 0.29-0.68 0.53-1.13 0.53 -0.92 0-1.92-1.01-1.92-1.92s1.04-1.92 1.84-1.92c0.68 0 1.22 0.42 1.65 1.06C289.04 174.27 288.49 172.37 289.85 172.11M280.96 174.55c1.35 0 1.66 1.49 1.66 1.83 0 1.06-1.04 2-1.75 2 -0.94 0-1.92-1.15-1.92-1.91C278.95 175.18 280.05 174.55 280.96 174.55"/><polygon points="58.4 277.12 65.15 279.15 65.27 279.37 63.21 286.56 62.67 286.56 56.36 284.47 56.25 284.25 "/><path d="M372.5 279.18l2 7.03 -0.54 0.43c-1.89 0.65-5.84 1.98-6.05 1.98h-0.6l-2-6.63 0.54-0.66C367.95 280.52 370.18 279.88 372.5 279.18M40.18 247.98c0.1 0.63 0.4 0.91 0.92 0.83l12.91-1.99c1.81-0.28 2.96-1.05 3.45-2.31 0.5-1.27 0.57-3.02 0.23-5.26 -0.35-2.24-0.94-3.89-1.8-4.94 -0.85-1.06-2.18-1.45-3.99-1.17l-12.91 1.99c-0.52 0.08-0.71 0.55-0.58 1.41l-0.77 0.12 -1.06-6.89 0.77-0.12c0.11 0.69 0.42 0.99 0.94 0.91l12.7-1.96c1.69-0.26 3.13-0.23 4.31 0.09s2.18 0.91 2.99 1.79c0.81 0.87 1.44 2.02 1.9 3.43 0.45 1.41 0.82 3.07 1.12 4.96s0.43 3.58 0.43 5.06c-0.01 1.49-0.26 2.77-0.77 3.84 -0.51 1.08-1.28 1.95-2.31 2.6 -1.03 0.66-2.39 1.12-4.08 1.38l-12.7 1.96c-0.52 0.08-0.71 0.52-0.59 1.33l-0.77 0.12 -1.09-7.06L40.18 247.98zM58.12 220.21c0.03-0.55-0.22-0.84-0.74-0.87L37.63 218.35c-0.52-0.02-0.8 0.24-0.82 0.79l-0.78-0.04 0.37-7.44 0.78 0.04c-0.01 0.23 0.13 0.36 0.42 0.37 0.23 0.01 0.65-0.26 1.26-0.81l13.59-11.83 -13.83-0.69c-0.52-0.02-0.8 0.34-0.84 1.09l-0.78-0.04 0.33-6.57 0.78 0.04c-0.03 0.55 0.22 0.84 0.74 0.87l19.75 0.99c0.52 0.03 0.8-0.24 0.82-0.79l0.78 0.04 -0.36 7.05 -0.78-0.04c0.02-0.38-0.1-0.57-0.36-0.59 -0.2-0.01-0.55 0.21-1.03 0.65l-14.5 12.57 14.44 0.73c0.52 0.03 0.8-0.29 0.83-0.96l0.78 0.04 -0.32 6.44L58.12 220.21zM61.29 185.82c0.16-0.74-0.02-1.16-0.53-1.27l-19.33-4.16c-0.51-0.11-0.85 0.2-1 0.94l-0.77-0.17 1.52-7.07 0.77 0.16c-0.16 0.74 0.02 1.16 0.53 1.27l19.33 4.16c0.51 0.11 0.85-0.2 1-0.94l0.77 0.17 -1.52 7.07L61.29 185.82zM53.39 139.94c-0.21 0.55-0.16 1.01 0.14 1.41 0.3 0.39 0.55 0.69 0.76 0.89l13.13 13.19c0.45 0.45 0.81 0.82 1.07 1.1 0.26 0.29 0.46 0.46 0.6 0.51 0.14 0.05 0.26 0.06 0.37 0.02 0.11-0.04 0.22-0.09 0.34-0.17l0.73 0.28 -2.35 6.23 -0.73-0.28c-0.02-0.28-0.16-0.48-0.43-0.58 -0.14-0.05-0.45-0.05-0.95-0.01s-1.11 0.1-1.85 0.16l-18.7 1.32c-0.35 0.02-0.64 0.13-0.87 0.32 -0.23 0.19-0.5 0.5-0.81 0.91l-0.73-0.28 2.75-7.29 0.73 0.28c-0.07 0.19-0.09 0.39-0.06 0.61 0.03 0.21 0.18 0.37 0.45 0.47 0.3 0.11 0.72 0.14 1.27 0.08 0.55-0.05 1.23-0.12 2.03-0.19l13.17-0.99 -9.12-9.26c-0.58-0.59-1.1-1.14-1.55-1.63 -0.45-0.49-0.78-0.78-1-0.86 -0.43-0.16-0.8 0.14-1.08 0.9l-0.73-0.28 2.69-7.13L53.39 139.94zM72.16 115.62c-0.27-0.17-0.54-0.19-0.81-0.06 -0.26 0.13-0.56 0.45-0.88 0.97l-7.36 12.04 4.61 2.82 4.45-7.28c0.3-0.49 0.47-0.92 0.5-1.28 0.03-0.35-0.24-0.71-0.81-1.06l0.41-0.67 5.8 3.54 -0.41 0.67c-0.57-0.35-1.02-0.43-1.35-0.26 -0.33 0.18-0.64 0.51-0.94 1.01l-4.45 7.28 5.13 3.13 7.59-12.41c0.23-0.37 0.32-0.73 0.29-1.07 -0.03-0.34-0.19-0.6-0.49-0.78l0.41-0.67 5.09 3.11 -0.41 0.67c-0.37-0.23-0.66-0.24-0.85-0.03 -0.19 0.2-0.4 0.49-0.63 0.86l-10.58 17.32 -0.67-0.41c0.1-0.17 0.14-0.36 0.12-0.57 -0.03-0.2-0.15-0.37-0.38-0.51l-16.87-10.31c-0.22-0.14-0.43-0.17-0.63-0.1 -0.2 0.07-0.35 0.19-0.45 0.36l-0.67-0.41 10.35-16.95c0.32-0.52 0.46-0.93 0.43-1.24 -0.03-0.31-0.19-0.55-0.46-0.71l0.41-0.67 4.9 3L72.16 115.62zM92.72 99.54c0.71-0.76 1.25-1.46 1.6-2.08 0.36-0.62 0.57-1.18 0.63-1.67 0.07-0.49 0.01-0.94-0.15-1.33 -0.17-0.39-0.42-0.75-0.76-1.07 -0.34-0.31-0.71-0.54-1.12-0.68 -0.41-0.14-0.85-0.16-1.34-0.06 -0.49 0.1-1.03 0.35-1.62 0.75 -0.59 0.4-1.24 0.99-1.95 1.75l-5.13 5.52 4.72 4.38L92.72 99.54zM86.02 91.78c0.95-1.02 1.9-1.86 2.85-2.53 0.95-0.66 1.9-1.11 2.85-1.34 0.95-0.23 1.88-0.21 2.81 0.05 0.92 0.26 1.84 0.82 2.76 1.67 1.41 1.3 2.09 2.72 2.07 4.24 -0.03 1.52-0.56 3.1-1.61 4.74l10 1.39c0.35 0.05 0.65-0.01 0.87-0.17 0.23-0.16 0.42-0.33 0.58-0.5l0.57 0.53 -5.54 5.97 -0.58-0.53c0.18-0.19 0.3-0.39 0.36-0.58 0.07-0.2 0.05-0.35-0.06-0.44 -0.1-0.1-0.27-0.17-0.48-0.21 -0.22-0.04-0.52-0.09-0.91-0.13l-8.24-1.11 -4.24 4.56 5.68 5.27c0.19 0.18 0.4 0.24 0.62 0.19 0.22-0.05 0.5-0.25 0.84-0.62l0.58 0.53 -5.13 5.52 -0.57-0.53c0.57-0.62 0.67-1.1 0.28-1.46l-14.49-13.45c-0.38-0.35-0.86-0.22-1.43 0.39l-0.58-0.53L86.02 91.78zM112.56 88.35l0.48-0.08c0.15 0.21 0.34 0.37 0.55 0.46 0.37 0.16 0.89 0.21 1.57 0.13 0.68-0.08 1.4-0.24 2.18-0.48 0.78-0.24 1.55-0.54 2.33-0.9 0.78-0.36 1.43-0.74 1.97-1.13 0.4-0.29 0.9-0.69 1.49-1.21 0.59-0.52 1.13-1.09 1.6-1.72 0.48-0.63 0.82-1.27 1.03-1.92 0.21-0.65 0.12-1.25-0.27-1.79 -0.39-0.54-0.89-0.79-1.49-0.75 -0.6 0.04-1.28 0.24-2.03 0.61 -0.75 0.37-1.57 0.84-2.46 1.43s-1.8 1.17-2.74 1.74c-0.94 0.58-1.91 1.09-2.88 1.55 -0.98 0.46-1.94 0.73-2.89 0.83 -0.95 0.1-1.87-0.04-2.77-0.41 -0.9-0.37-1.74-1.1-2.52-2.18 -0.53-0.73-0.88-1.57-1.05-2.52 -0.17-0.95-0.1-1.95 0.22-3.01 0.31-1.05 0.89-2.14 1.72-3.26 0.84-1.12 1.98-2.21 3.44-3.27 1.25-0.9 2.4-1.59 3.45-2.07 1.06-0.47 1.99-0.85 2.81-1.12 0.82-0.27 1.53-0.48 2.13-0.63 0.6-0.14 1.04-0.32 1.35-0.55 0.33-0.24 0.51-0.48 0.55-0.72l0.63-0.02 0.76 6.17 -0.46 0.11c-0.28-0.29-0.57-0.5-0.87-0.61 -0.39-0.15-0.9-0.2-1.53-0.15 -0.63 0.05-1.32 0.17-2.06 0.39 -0.74 0.21-1.5 0.5-2.28 0.87 -0.77 0.37-1.51 0.79-2.19 1.29 -0.52 0.38-1.02 0.8-1.52 1.29 -0.49 0.48-0.9 0.97-1.23 1.45 -0.33 0.49-0.54 0.98-0.64 1.46 -0.1 0.48 0 0.93 0.28 1.32 0.41 0.56 0.92 0.84 1.54 0.82 0.62-0.02 1.31-0.19 2.08-0.54 0.77-0.35 1.61-0.8 2.5-1.38 0.89-0.57 1.81-1.15 2.75-1.73 0.95-0.58 1.91-1.09 2.9-1.53 0.99-0.45 1.95-0.72 2.91-0.81 0.95-0.1 1.87 0.04 2.76 0.4 0.89 0.36 1.71 1.07 2.48 2.13 0.89 1.22 1.28 2.46 1.2 3.7 -0.09 1.24-0.45 2.44-1.09 3.58 -0.64 1.15-1.47 2.2-2.47 3.16 -1.01 0.96-1.99 1.79-2.96 2.49 -1.34 0.97-2.52 1.71-3.54 2.21s-1.9 0.86-2.67 1.07c-0.76 0.21-1.38 0.35-1.86 0.43 -0.48 0.08-0.85 0.21-1.1 0.4 -0.17 0.12-0.25 0.32-0.26 0.61l-0.7 0.07L112.56 88.35zM139.53 78.07c0.67-0.35 0.88-0.76 0.64-1.22l-9.2-17.5c-0.24-0.46-0.7-0.52-1.37-0.17l-0.37-0.69 6.4-3.36 0.36 0.69c-0.67 0.35-0.88 0.76-0.64 1.22l9.2 17.5c0.24 0.46 0.7 0.52 1.37 0.17l0.36 0.69 -6.4 3.36L139.53 78.07zM165.81 66.47l0.27 0.74 -6.31 2.27 -0.26-0.74c0.19-0.07 0.34-0.19 0.44-0.37 0.11-0.18 0.12-0.39 0.03-0.63l-5.87-16.31 -6.76 2.44c-0.25 0.09-0.46 0.24-0.64 0.46 -0.18 0.22-0.21 0.52-0.07 0.9l-0.74 0.27 -2.06-5.74 0.74-0.27c0.14 0.38 0.35 0.6 0.63 0.65 0.28 0.05 0.55 0.03 0.79-0.05l18.19-6.55c0.25-0.09 0.46-0.24 0.64-0.46 0.18-0.22 0.21-0.52 0.07-0.9l0.74-0.26 2.07 5.74 -0.74 0.27c-0.14-0.38-0.35-0.6-0.63-0.65 -0.28-0.05-0.54-0.03-0.79 0.06l-6.76 2.43 5.87 16.31C164.82 66.56 165.21 66.69 165.81 66.47M182.71 39.27l0.13 0.77c-0.26 0.04-0.49 0.12-0.71 0.23 -0.22 0.11-0.3 0.31-0.25 0.6 0.03 0.17 0.3 0.55 0.82 1.12 0.52 0.57 1.13 1.23 1.83 1.95 0.69 0.73 1.41 1.47 2.16 2.23s1.35 1.41 1.82 1.95l3.88-7.75c0.17-0.38 0.31-0.69 0.42-0.91 0.11-0.22 0.15-0.42 0.12-0.59 -0.03-0.2-0.19-0.31-0.47-0.32 -0.28-0.01-0.53 0-0.76 0.04l-0.13-0.77 7.52-1.25 0.13 0.77c-0.23 0.04-0.44 0.1-0.63 0.17 -0.19 0.08-0.39 0.21-0.57 0.4 -0.19 0.19-0.38 0.46-0.57 0.8 -0.19 0.34-0.42 0.8-0.68 1.37l-5.59 11.56 1.27 7.65c0.08 0.52 0.46 0.72 1.12 0.61l0.13 0.77 -6.79 1.13 -0.13-0.77c0.26-0.04 0.46-0.14 0.61-0.3 0.15-0.16 0.21-0.36 0.16-0.62l-1.27-7.65 -10.22-10.22c-0.25-0.25-0.6-0.44-1.04-0.57 -0.45-0.13-0.82-0.17-1.1-0.13l-0.13-0.77L182.71 39.27zM230.89 41.09c-1.13 0.23-2.17 0.63-3.12 1.19 -0.94 0.56-1.74 1.29-2.39 2.18 -0.64 0.9-1.03 1.95-1.15 3.16 -0.13 1.21 0.04 2.33 0.48 3.33 0.45 1.01 1.08 1.89 1.9 2.63 0.81 0.74 1.75 1.34 2.82 1.8 1.06 0.46 2.14 0.75 3.24 0.86 1.1 0.11 2.21 0.05 3.35-0.18 1.13-0.23 2.17-0.63 3.12-1.19 0.95-0.56 1.75-1.29 2.4-2.18 0.65-0.9 1.03-1.95 1.16-3.16 0.13-1.22-0.04-2.32-0.49-3.33 -0.45-1.01-1.08-1.88-1.9-2.63 -0.81-0.74-1.75-1.34-2.81-1.8s-2.14-0.75-3.24-0.86C233.14 40.8 232.03 40.85 230.89 41.09M239.43 38.14c1.6 0.65 3.03 1.52 4.28 2.61 1.26 1.09 2.25 2.41 2.96 3.96 0.72 1.55 0.97 3.32 0.77 5.31 -0.2 1.99-0.82 3.68-1.83 5.04 -1.02 1.37-2.26 2.46-3.71 3.27 -1.46 0.81-3.03 1.35-4.72 1.61 -1.69 0.26-3.33 0.31-4.92 0.15s-3.18-0.55-4.78-1.15c-1.6-0.6-3.03-1.45-4.29-2.54 -1.26-1.09-2.24-2.41-2.96-3.96 -0.71-1.55-0.97-3.32-0.77-5.31 0.21-1.99 0.82-3.67 1.84-5.04 1.02-1.37 2.25-2.46 3.71-3.27 1.45-0.81 3.03-1.37 4.73-1.68 1.7-0.31 3.34-0.38 4.92-0.21S237.83 37.49 239.43 38.14M276.2 51.17c0.09-0.31 0.04-0.57-0.15-0.79 -0.19-0.22-0.58-0.42-1.16-0.59l-13.54-3.96 -1.52 5.18 8.19 2.4c0.56 0.16 1 0.23 1.34 0.21 0.34-0.02 0.57-0.23 0.68-0.62l0.75 0.22 -1.76 6.02 -0.75-0.22c0.19-0.64 0.15-1.1-0.1-1.37 -0.25-0.27-0.66-0.49-1.22-0.65l-8.19-2.4 -2.37 8.11c-0.07 0.25-0.01 0.47 0.19 0.67 0.2 0.19 0.48 0.34 0.84 0.45l-0.22 0.75 -7.1-2.08 0.22-0.75c0.72 0.21 1.16 0.07 1.31-0.44l5.56-18.97c0.15-0.5-0.14-0.86-0.87-1.07l0.22-0.75 19.4 5.68c0.58 0.17 1.02 0.2 1.31 0.09 0.29-0.11 0.48-0.32 0.57-0.63l0.75 0.22 -1.61 5.52L276.2 51.17zM315.73 68.14c0.27-0.44 0.14-0.83-0.4-1.17l0.41-0.67 5.7 3.53 -0.41 0.67c-0.17-0.11-0.36-0.15-0.56-0.12 -0.21 0.03-0.38 0.15-0.52 0.37l-10.42 16.8c-0.13 0.22-0.17 0.43-0.1 0.63 0.07 0.19 0.19 0.35 0.36 0.45l-0.41 0.67 -5.7-3.53 0.41-0.67c0.55 0.34 0.95 0.28 1.23-0.16l4.31-6.96L297.71 70.6l-4.31 6.96c-0.14 0.22-0.17 0.43-0.11 0.63 0.07 0.19 0.19 0.35 0.36 0.45l-0.41 0.67 -5.59-3.46 0.41-0.67c0.47 0.29 0.84 0.21 1.11-0.23l10.42-16.81c0.28-0.44 0.18-0.81-0.29-1.1l0.41-0.67 5.59 3.46 -0.41 0.67c-0.17-0.11-0.36-0.15-0.57-0.12 -0.2 0.03-0.37 0.15-0.51 0.37l-3.9 6.29 11.92 7.39L315.73 68.14zM334.51 86.54c-1.04-0.51-2.1-0.83-3.19-0.97 -1.09-0.14-2.17-0.05-3.23 0.27 -1.06 0.31-2.01 0.91-2.85 1.8 -0.84 0.88-1.39 1.86-1.65 2.93 -0.26 1.07-0.3 2.15-0.1 3.23 0.19 1.08 0.57 2.13 1.13 3.14 0.56 1.01 1.24 1.9 2.04 2.66 0.8 0.76 1.72 1.39 2.76 1.9 1.04 0.51 2.1 0.83 3.2 0.97 1.09 0.14 2.17 0.05 3.23-0.27 1.06-0.31 2.01-0.91 2.85-1.79 0.84-0.88 1.39-1.86 1.65-2.93 0.26-1.07 0.3-2.15 0.1-3.23 -0.19-1.08-0.57-2.13-1.12-3.14 -0.56-1.01-1.24-1.9-2.04-2.66C336.47 87.68 335.55 87.04 334.51 86.54M343.07 89.41c0.87 1.49 1.47 3.04 1.8 4.68 0.33 1.63 0.31 3.28-0.07 4.94 -0.38 1.66-1.26 3.22-2.64 4.67 -1.38 1.45-2.89 2.41-4.53 2.87 -1.64 0.46-3.29 0.57-4.94 0.32 -1.65-0.25-3.22-0.78-4.72-1.6 -1.5-0.82-2.83-1.78-3.99-2.89 -1.16-1.1-2.19-2.38-3.09-3.83 -0.9-1.45-1.51-3-1.84-4.63 -0.33-1.63-0.3-3.28 0.07-4.94 0.38-1.66 1.26-3.22 2.64-4.67 1.38-1.45 2.89-2.41 4.53-2.87 1.64-0.46 3.29-0.57 4.94-0.32 1.65 0.24 3.24 0.76 4.77 1.56 1.53 0.79 2.88 1.74 4.03 2.84C341.18 86.63 342.2 87.93 343.07 89.41M359.2 108.47c-0.36-0.52-0.76-0.63-1.19-0.33l-10.69 7.51c-1.49 1.05-2.18 2.26-2.06 3.61 0.12 1.35 0.83 2.96 2.13 4.81 1.3 1.85 2.57 3.06 3.8 3.64 1.23 0.57 2.6 0.33 4.1-0.72l10.69-7.51c0.43-0.3 0.39-0.81-0.11-1.52l0.65-0.45 4.01 5.7 -0.64 0.45c-0.4-0.57-0.81-0.7-1.24-0.4l-10.51 7.39c-1.41 0.98-2.7 1.6-3.9 1.84 -1.2 0.24-2.35 0.15-3.47-0.28s-2.19-1.17-3.22-2.23c-1.03-1.07-2.1-2.38-3.2-3.95 -1.1-1.57-1.98-3.02-2.63-4.35 -0.65-1.33-1-2.6-1.02-3.78 -0.02-1.19 0.28-2.31 0.92-3.36 0.63-1.05 1.65-2.06 3.05-3.05l10.51-7.39c0.43-0.3 0.41-0.78-0.06-1.45l0.64-0.45 4.11 5.84L359.2 108.47zM362.08 140.77l-0.02 0.49c-0.24 0.11-0.43 0.25-0.57 0.44 -0.23 0.33-0.38 0.83-0.44 1.51 -0.06 0.68-0.06 1.42 0.02 2.23 0.07 0.81 0.21 1.63 0.41 2.47s0.43 1.56 0.7 2.17c0.21 0.45 0.49 1.02 0.88 1.71 0.39 0.69 0.84 1.33 1.36 1.92 0.52 0.59 1.08 1.06 1.68 1.4 0.6 0.34 1.2 0.37 1.81 0.1 0.61-0.27 0.96-0.7 1.04-1.3 0.09-0.6 0.03-1.3-0.18-2.11 -0.21-0.81-0.5-1.71-0.9-2.7 -0.39-0.98-0.77-2-1.14-3.04 -0.37-1.04-0.68-2.09-0.93-3.14 -0.24-1.05-0.32-2.05-0.22-3 0.1-0.95 0.42-1.83 0.97-2.63 0.55-0.8 1.43-1.47 2.65-2.02 0.82-0.36 1.72-0.53 2.68-0.5s1.93 0.31 2.9 0.83c0.96 0.53 1.91 1.31 2.84 2.36 0.93 1.05 1.76 2.39 2.49 4.04 0.63 1.4 1.06 2.67 1.31 3.8 0.25 1.13 0.42 2.12 0.52 2.99 0.1 0.86 0.16 1.6 0.18 2.21 0.02 0.61 0.1 1.09 0.26 1.44 0.17 0.37 0.36 0.6 0.59 0.69l-0.1 0.62 -6.2-0.52 -0.02-0.47c0.35-0.22 0.6-0.46 0.77-0.73 0.22-0.35 0.38-0.84 0.47-1.47 0.08-0.63 0.1-1.33 0.04-2.09 -0.05-0.77-0.19-1.57-0.38-2.41s-0.47-1.63-0.81-2.4c-0.26-0.58-0.57-1.17-0.94-1.75 -0.37-0.58-0.76-1.08-1.17-1.5 -0.41-0.42-0.84-0.73-1.29-0.92 -0.45-0.2-0.9-0.19-1.35 0.01 -0.64 0.28-1.01 0.73-1.12 1.33 -0.11 0.61-0.08 1.32 0.1 2.15 0.18 0.83 0.46 1.73 0.83 2.73 0.38 0.99 0.75 2.01 1.12 3.05 0.37 1.04 0.67 2.09 0.9 3.15 0.23 1.05 0.3 2.06 0.2 3.01 -0.1 0.95-0.42 1.82-0.95 2.62 -0.54 0.8-1.4 1.46-2.59 1.99 -1.38 0.62-2.67 0.75-3.87 0.41s-2.29-0.94-3.28-1.8c-0.99-0.86-1.85-1.89-2.58-3.07 -0.74-1.18-1.34-2.32-1.83-3.4 -0.67-1.51-1.15-2.82-1.44-3.91s-0.45-2.04-0.5-2.83c-0.05-0.79-0.06-1.43-0.04-1.91 0.02-0.49-0.03-0.87-0.16-1.17 -0.08-0.19-0.26-0.31-0.55-0.37l0.07-0.7L362.08 140.77zM369.59 180.52l-0.76 0.19 -1.63-6.51 0.76-0.19c0.05 0.2 0.16 0.36 0.32 0.48 0.17 0.12 0.38 0.15 0.63 0.09l16.81-4.21 -1.74-6.97c-0.06-0.25-0.2-0.48-0.4-0.69 -0.2-0.2-0.5-0.26-0.89-0.16l-0.19-0.76 5.91-1.48 0.19 0.76c-0.4 0.1-0.63 0.28-0.71 0.56s-0.09 0.54-0.02 0.79l4.7 18.76c0.06 0.25 0.19 0.48 0.4 0.69 0.2 0.2 0.5 0.26 0.89 0.16l0.19 0.76 -5.91 1.48 -0.19-0.76c0.39-0.1 0.63-0.28 0.71-0.56 0.08-0.27 0.09-0.54 0.03-0.79l-1.75-6.97 -16.81 4.21C369.61 179.52 369.43 179.9 369.59 180.52M390.83 202.14c-0.4-1.08-0.96-2.04-1.66-2.89 -0.7-0.85-1.54-1.52-2.53-2.02s-2.09-0.71-3.3-0.64c-1.22 0.07-2.28 0.4-3.21 1.01 -0.92 0.6-1.69 1.37-2.29 2.29s-1.05 1.94-1.34 3.06c-0.29 1.12-0.4 2.23-0.34 3.33 0.06 1.1 0.3 2.19 0.71 3.28 0.41 1.08 0.96 2.05 1.67 2.9 0.7 0.85 1.54 1.52 2.53 2.02 0.99 0.5 2.09 0.71 3.3 0.65 1.22-0.07 2.29-0.4 3.21-1.01 0.93-0.6 1.69-1.37 2.29-2.29 0.6-0.92 1.05-1.94 1.33-3.06 0.28-1.12 0.4-2.23 0.34-3.33C391.47 204.31 391.24 203.22 390.83 202.14M395.08 210.11c-0.38 1.68-1.02 3.23-1.9 4.64 -0.88 1.41-2.03 2.6-3.44 3.55 -1.42 0.95-3.12 1.48-5.12 1.59 -2 0.11-3.75-0.23-5.26-1.02 -1.51-0.79-2.78-1.84-3.81-3.15 -1.03-1.31-1.81-2.78-2.34-4.41 -0.52-1.63-0.83-3.24-0.92-4.83 -0.09-1.6 0.04-3.23 0.38-4.9 0.34-1.68 0.96-3.22 1.84-4.64 0.88-1.42 2.03-2.6 3.44-3.55 1.41-0.95 3.12-1.48 5.12-1.59 2-0.11 3.75 0.23 5.26 1.02 1.51 0.79 2.78 1.84 3.81 3.15 1.03 1.31 1.83 2.78 2.4 4.4 0.57 1.63 0.9 3.24 0.99 4.83C395.61 206.79 395.47 208.43 395.08 210.11M373.59 226.01c-0.08 0.55 0.13 0.86 0.65 0.94l19.55 2.98c0.52 0.08 0.82-0.16 0.9-0.7l0.77 0.12 -1.12 7.36 -0.78-0.12c0.04-0.23-0.09-0.36-0.38-0.41 -0.23-0.03-0.68 0.19-1.34 0.68l-14.71 10.4 13.69 2.09c0.52 0.08 0.83-0.25 0.95-1l0.77 0.12 -0.99 6.5 -0.77-0.12c0.08-0.55-0.13-0.86-0.65-0.94l-19.54-2.98c-0.52-0.08-0.82 0.16-0.9 0.7l-0.77-0.12 1.06-6.97 0.77 0.12c-0.05 0.37 0.05 0.58 0.31 0.62 0.2 0.03 0.56-0.15 1.09-0.54l15.7-11.04 -14.29-2.18c-0.52-0.08-0.82 0.21-0.93 0.87l-0.77-0.12 0.97-6.37L373.59 226.01zM89.11 320.67c0.12-0.09 0.17-0.26 0.16-0.51 -0.02-0.25-0.18-0.58-0.49-0.99l-7.32-9.84 -3.85 2.86 4.76 6.39c0.3 0.41 0.54 0.64 0.69 0.67 0.16 0.03 0.34-0.01 0.55-0.13l0.49 0.65 -3.81 2.84 -0.49-0.65c0.18-0.17 0.28-0.34 0.3-0.51 0.02-0.17-0.12-0.46-0.42-0.87l-4.75-6.39 -5.56 4.14c-0.19 0.14-0.27 0.33-0.23 0.56 0.04 0.23 0.14 0.46 0.31 0.68l-0.65 0.49 -3.73-5.01 0.65-0.49c0.34 0.46 0.7 0.55 1.06 0.28l13.58-10.1c0.36-0.27 0.36-0.66-0.02-1.17l0.65-0.49 10.48 14.09c0.31 0.41 0.58 0.66 0.83 0.74 0.25 0.08 0.47 0.05 0.66-0.1l0.49 0.65 -3.85 2.86L89.11 320.67zM101.03 332.47c-0.89-0.4-1.8-0.63-2.73-0.7 -0.93-0.07-1.84 0.06-2.73 0.37 -0.9 0.32-1.72 0.87-2.46 1.66 -0.74 0.79-1.24 1.65-1.5 2.56 -0.26 0.91-0.33 1.83-0.2 2.76 0.13 0.93 0.41 1.82 0.87 2.68 0.45 0.86 1.03 1.62 1.73 2.29 0.7 0.66 1.5 1.19 2.39 1.59 0.89 0.4 1.79 0.63 2.73 0.7 0.93 0.07 1.84-0.06 2.74-0.37 0.9-0.32 1.72-0.87 2.46-1.66 0.74-0.79 1.24-1.65 1.51-2.56 0.26-0.92 0.33-1.84 0.2-2.76 -0.12-0.93-0.41-1.82-0.86-2.68 -0.45-0.86-1.03-1.62-1.73-2.28C102.71 333.4 101.92 332.87 101.03 332.47M108.68 335.29c0.77 1.31 1.27 2.65 1.48 4 0.21 1.36 0.11 2.73-0.3 4.09 -0.42 1.37-1.21 2.68-2.39 3.93 -1.18 1.25-2.43 2.13-3.77 2.63 -1.34 0.5-2.69 0.69-4.06 0.56 -1.37-0.13-2.71-0.56-4.04-1.28 -1.32-0.73-2.59-1.66-3.8-2.79 -1.21-1.14-2.22-2.34-3.02-3.62 -0.81-1.28-1.32-2.6-1.53-3.95 -0.21-1.36-0.11-2.72 0.31-4.09 0.41-1.37 1.21-2.68 2.39-3.93 1.18-1.25 2.43-2.13 3.77-2.63 1.34-0.5 2.69-0.69 4.06-0.56 1.37 0.13 2.73 0.54 4.09 1.23 1.35 0.69 2.63 1.61 3.84 2.75S107.91 333.98 108.68 335.29M122.86 347.08c-0.55-0.36-0.95-0.36-1.2 0.02l-5.69 8.69c-0.8 1.22-0.99 2.48-0.59 3.79 0.4 1.31 1.51 2.56 3.32 3.75 1.81 1.19 3.4 1.71 4.76 1.56 1.36-0.16 2.44-0.84 3.23-2.06l5.69-8.69c0.25-0.38 0.06-0.78-0.57-1.19l0.45-0.68 5.25 3.45 -0.45 0.68c-0.55-0.36-0.95-0.36-1.2 0.02l-6.27 9.58c-0.51 0.78-1.18 1.42-2 1.9 -0.82 0.49-1.77 0.77-2.85 0.86 -1.08 0.08-2.29-0.08-3.61-0.5 -1.33-0.42-2.75-1.13-4.26-2.12 -1.51-0.99-2.73-2.01-3.64-3.06 -0.91-1.05-1.55-2.09-1.91-3.12 -0.35-1.02-0.47-2.01-0.35-2.96 0.12-0.95 0.43-1.82 0.94-2.6l6.27-9.58c0.13-0.2 0.15-0.4 0.06-0.58 -0.1-0.19-0.35-0.42-0.78-0.7l0.45-0.68 5.4 3.55L122.86 347.08zM136.68 376.76c0.5 0.21 0.84 0.1 1.01-0.32l6.46-15.65c0.17-0.42 0.01-0.73-0.49-0.94l0.31-0.75 6.15 2.54 -0.31 0.75c-0.21-0.05-0.33-0.02-0.38 0.09 -0.06 0.14 0.1 0.64 0.45 1.51l5.65 14.77 4.68-11.34c0.17-0.42-0.02-0.74-0.58-0.97l0.31-0.75 5.1 2.11 -0.31 0.75c-0.5-0.21-0.84-0.1-1.01 0.31l-6.46 15.65c-0.17 0.42-0.01 0.73 0.49 0.94l-0.31 0.75 -5.44-2.24 0.31-0.76c0.19 0.08 0.32 0.05 0.38-0.09 0.04-0.11-0.01-0.36-0.16-0.75 -0.15-0.39-0.31-0.83-0.5-1.33l-5.81-15.33 -5.03 12.18c-0.17 0.42 0.03 0.75 0.62 0.99l-0.31 0.75 -5.14-2.12L136.68 376.76zM179.61 388.43c0.91 0.19 1.8 0.31 2.65 0.35 0.85 0.04 1.64-0.1 2.36-0.43 0.72-0.33 1.35-0.89 1.9-1.68 0.55-0.79 0.99-1.93 1.3-3.4 0.31-1.47 0.37-2.67 0.18-3.59 -0.19-0.92-0.55-1.66-1.08-2.22 -0.53-0.56-1.2-0.98-2-1.26 -0.8-0.28-1.66-0.51-2.58-0.7l-5.76-1.22 -2.73 12.93L179.61 388.43zM168.06 388.59c0.68 0.14 1.06-0.01 1.16-0.45l3.49-16.56c0.09-0.44-0.2-0.74-0.88-0.88l0.17-0.79 12.31 2.6c1.74 0.37 3.17 0.96 4.29 1.78 1.13 0.82 1.98 1.77 2.57 2.83 0.59 1.07 0.95 2.22 1.07 3.47s0.05 2.48-0.21 3.73c-0.26 1.24-0.69 2.4-1.29 3.5 -0.6 1.09-1.38 2.01-2.34 2.74 -0.96 0.74-2.1 1.26-3.43 1.57 -1.33 0.31-2.86 0.28-4.61-0.09l-12.49-2.63L168.06 388.59zM217.4 380.02c0.02-0.57-0.43-0.88-1.37-0.92l-11.03-0.47 -0.19 4.52 6.96 0.3c0.51 0.02 0.89 0 1.14-0.06 0.24-0.07 0.37-0.27 0.39-0.6l0.81 0.04 -0.2 4.79 -0.9-0.04c0.11-0.33-0.01-0.53-0.33-0.62 -0.33-0.09-0.79-0.15-1.4-0.17l-6.6-0.28 -0.23 5.34 11.58 0.49c0.36 0.02 0.67-0.05 0.91-0.21 0.25-0.15 0.38-0.37 0.39-0.64l0.81 0.03 -0.2 4.75 -0.82-0.04c0.01-0.27-0.1-0.43-0.34-0.47 -0.24-0.04-0.54-0.07-0.9-0.08l-16.59-0.71 0.04-0.81c0.15 0.01 0.3-0.04 0.46-0.14s0.24-0.27 0.25-0.51l0.72-16.91c0.01-0.24-0.06-0.42-0.2-0.53 -0.15-0.11-0.3-0.17-0.45-0.18l0.04-0.81 16.05 0.69c0.93 0.04 1.42-0.21 1.44-0.75l0.81 0.03 -0.22 5.02L217.4 380.02zM238.98 390.69c0.93-0.11 1.8-0.29 2.62-0.53 0.82-0.24 1.52-0.63 2.09-1.18 0.57-0.55 0.99-1.28 1.25-2.21 0.26-0.93 0.3-2.14 0.11-3.64 -0.19-1.5-0.52-2.65-1.01-3.45 -0.48-0.81-1.06-1.39-1.75-1.74 -0.69-0.35-1.45-0.53-2.3-0.53 -0.85 0-1.74 0.06-2.67 0.18l-5.84 0.74 1.66 13.11L238.98 390.69zM228.11 394.62c0.69-0.09 1.01-0.35 0.95-0.8l-2.12-16.79c-0.05-0.45-0.43-0.63-1.12-0.54l-0.1-0.81 12.48-1.58c1.77-0.22 3.31-0.13 4.64 0.28 1.33 0.41 2.45 1.02 3.36 1.83 0.91 0.81 1.62 1.79 2.15 2.92 0.53 1.14 0.87 2.33 1.02 3.59 0.16 1.26 0.13 2.5-0.08 3.73 -0.21 1.23-0.65 2.35-1.31 3.36 -0.66 1.01-1.57 1.88-2.73 2.6 -1.16 0.72-2.62 1.2-4.38 1.42l-12.66 1.6L228.11 394.62zM280.25 383.23c0.28-0.11 0.49-0.29 0.65-0.53 0.14-0.24 0.12-0.59-0.07-1.07l-5.65-14.02c-0.19 0.08-0.42 0.19-0.67 0.32 -0.26 0.14-0.49 0.29-0.72 0.46 -0.22 0.17-0.42 0.36-0.58 0.57 -0.15 0.21-0.23 0.44-0.22 0.7l-0.5 0.21 -2.13-5.29 0.5-0.2c0.1 0.25 0.3 0.38 0.59 0.37 0.29 0 0.55-0.05 0.78-0.14 0.48-0.19 0.81-0.5 1.02-0.92 0.2-0.42 0.22-0.84 0.05-1.27 -0.16-0.39-0.35-0.6-0.58-0.64s-0.51-0.02-0.84 0.04l-0.2-0.5 6.8-2.74 0.2 0.5c-0.31 0.19-0.55 0.4-0.72 0.63 -0.17 0.23-0.19 0.49-0.08 0.76l7.75 19.23c0.19 0.48 0.43 0.75 0.72 0.81s0.57 0.04 0.85-0.07l0.21 0.5 -6.93 2.79L280.25 383.23zM294.29 355.29c-0.53 0.47-0.95 0.97-1.27 1.52 -0.31 0.55-0.47 1.13-0.48 1.74 -0.01 0.62 0.18 1.26 0.57 1.94 0.39 0.68 0.86 1.17 1.4 1.47 0.54 0.3 1.12 0.45 1.75 0.45 0.63 0 1.27-0.11 1.95-0.34 0.67-0.23 1.31-0.52 1.94-0.88 0.63-0.36 1.21-0.77 1.74-1.24 0.54-0.46 0.96-0.97 1.27-1.51 0.31-0.55 0.47-1.13 0.48-1.74 0.02-0.61-0.18-1.26-0.57-1.94 -0.39-0.68-0.86-1.17-1.4-1.47 -0.54-0.3-1.12-0.45-1.75-0.45 -0.63-0.01-1.28 0.11-1.95 0.34 -0.67 0.23-1.31 0.53-1.94 0.89C295.41 354.41 294.82 354.83 294.29 355.29M295.52 369.55l0.6-0.04c0.08 0.13 0.19 0.28 0.33 0.44 0.15 0.16 0.31 0.28 0.49 0.35 0.46 0.19 0.98 0.28 1.57 0.27 0.59-0.01 1.18-0.08 1.78-0.22s1.18-0.32 1.74-0.56c0.56-0.24 1.05-0.47 1.47-0.71 4.08-2.35 5.06-5.66 2.96-9.91 -0.78 1.18-1.61 2.28-2.48 3.31 -0.87 1.03-1.91 1.89-3.11 2.58 -0.94 0.55-1.98 0.98-3.1 1.32 -1.13 0.34-2.24 0.49-3.32 0.45s-2.1-0.3-3.07-0.79c-0.96-0.49-1.76-1.28-2.39-2.38 -0.77-1.33-1.13-2.64-1.09-3.92 0.05-1.28 0.36-2.5 0.95-3.65 0.59-1.16 1.38-2.22 2.38-3.17 1-0.96 2.07-1.77 3.22-2.44 1.43-0.83 2.89-1.35 4.36-1.55 1.47-0.2 2.89-0.11 4.25 0.26 1.37 0.38 2.64 1.03 3.8 1.97 1.16 0.93 2.16 2.11 2.99 3.55 0.98 1.7 1.6 3.39 1.85 5.07 0.26 1.68 0.17 3.3-0.26 4.85 -0.43 1.55-1.18 2.98-2.26 4.28 -1.08 1.3-2.47 2.44-4.16 3.42 -1.18 0.68-2.22 1.17-3.14 1.48 -0.92 0.31-1.73 0.49-2.42 0.56 -0.69 0.07-1.26 0.1-1.72 0.1 -0.45 0-0.78 0.06-0.99 0.18 -0.29 0.17-0.49 0.39-0.61 0.67l-0.47-0.09L295.52 369.55zM342 345.81l-0.41 0.35c-0.22-0.25-0.44-0.3-0.68-0.13 -0.24 0.16-0.48 0.35-0.74 0.56l-14.53 12.33c-0.25 0.22-0.44 0.41-0.58 0.58 -0.13 0.17-0.11 0.36 0.07 0.57l-0.41 0.35 -1.05-1.24c-1.03-1.22-1.62-2.52-1.75-3.92 -0.13-1.39-0.02-2.81 0.33-4.26 0.35-1.45 0.84-2.87 1.47-4.28 0.63-1.4 1.2-2.74 1.7-4.02s0.83-2.43 0.99-3.48c0.16-1.05-0.06-1.93-0.67-2.64 -0.41-0.48-0.86-0.78-1.34-0.91 -0.48-0.12-0.98-0.14-1.49-0.04 -0.51 0.1-1 0.28-1.47 0.57 -0.47 0.28-0.9 0.59-1.3 0.92 -0.39 0.33-0.82 0.81-1.27 1.44 -0.46 0.63-0.83 1.3-1.13 2.03 -0.29 0.73-0.47 1.44-0.52 2.14 -0.06 0.7 0.12 1.29 0.53 1.78 0.1 0.12 0.25 0.24 0.47 0.38 0.22 0.13 0.4 0.2 0.55 0.19l-0.14 0.54 -6.77-0.78 0.14-0.53c0.13-0.03 0.26-0.06 0.4-0.1 0.13-0.03 0.25-0.1 0.37-0.19 0.14-0.12 0.24-0.5 0.32-1.16 0.07-0.66 0.26-1.46 0.55-2.43 0.29-0.96 0.77-2.02 1.45-3.19 0.67-1.17 1.68-2.31 3.01-3.45 0.88-0.74 1.82-1.36 2.83-1.87 1.02-0.5 2.04-0.81 3.08-0.92 1.04-0.1 2.06 0.02 3.05 0.38s1.93 1.05 2.79 2.06c0.92 1.08 1.48 2.15 1.66 3.22 0.19 1.06 0.16 2.13-0.1 3.2 -0.26 1.07-0.67 2.14-1.23 3.21 -0.56 1.07-1.14 2.15-1.74 3.23 -0.6 1.09-1.15 2.16-1.66 3.22 -0.51 1.06-0.82 2.15-0.96 3.25l0.3 0.35 11.38-9.67c0.25-0.21 0.45-0.46 0.59-0.74 0.14-0.28 0.02-0.64-0.37-1.1l0.41-0.35L342 345.81zM336.17 322.77c-0.2 0.26-0.35 0.54-0.44 0.84 -0.08 0.3 0.07 0.61 0.48 0.93l-0.34 0.42 -4.78-3.81 0.34-0.42c0.28 0.23 0.55 0.25 0.8 0.09 0.25-0.17 0.48-0.38 0.68-0.64l11.86-14.86c0.56-0.71 0.63-1.23 0.21-1.57l0.34-0.43 3.19 2.54 6.73 18.92c0.19 0.54 0.35 1.03 0.47 1.48 0.13 0.45 0.28 0.75 0.47 0.9 0.38 0.3 0.74 0.23 1.1-0.22l0.43 0.34 -5.08 6.37 -0.43-0.34c0.15-0.19 0.23-0.5 0.25-0.93 0.02-0.43-0.04-0.83-0.17-1.2l-6.86-20L336.17 322.77zM216 64.79c-83.24 0-150.96 67.47-150.96 150.4S132.76 365.58 216 365.58c83.24 0 150.96-67.47 150.96-150.4S299.24 64.79 216 64.79M216 67.35c81.81 0 148.39 66.33 148.39 147.83 0 81.5-66.58 147.83-148.39 147.83 -81.81 0-148.4-66.34-148.4-147.83C67.6 133.68 134.19 67.35 216 67.35"/></svg>